<?xml version="1.0" encoding="utf-8"?>
<!-- Generator: Adobe Illustrator 22.0.0, SVG Export Plug-In . SVG Version: 6.00 Build 0)  -->
<svg version="1.1" id="XMLID_2_" xmlns="http://www.w3.org/2000/svg" xmlns:xlink="http://www.w3.org/1999/xlink" x="0px" y="0px"
	 viewBox="0 0 64 64" style="enable-background:new 0 0 64 64;" xml:space="preserve">
<style type="text/css">
	.st0{fill:#70A9DC;}
	.st1{fill:#B7CEEB;}
</style>
<g>
	<path class="st0" d="M53.2,15.6l2.4-4.2c0.1-0.2,0.1-0.5,0-0.8c-0.1-0.2-0.4-0.4-0.7-0.4h-4.8L47.7,6c-0.3-0.5-1-0.5-1.3,0L44,10.2
		h-4.8c-0.3,0-0.5,0.1-0.7,0.4s-0.1,0.5,0,0.8l2.4,4.2l-2.4,4.2c-0.1,0.2-0.1,0.5,0,0.8c0.1,0.2,0.4,0.4,0.7,0.4H44l2.4,4.2
		c0.1,0.2,0.4,0.4,0.7,0.4c0.3,0,0.5-0.1,0.7-0.4l2.4-4.2H55c0.3,0,0.5-0.1,0.7-0.4c0.1-0.2,0.1-0.5,0-0.8L53.2,15.6z M51.9,14.8
		h-3.5l1.8-3h3.5L51.9,14.8z M47.1,8l1.8,3l-1.8,3l-1.8-3L47.1,8z M40.5,11.8H44l1.8,3l-3.5,0L40.5,11.8z M42.2,16.3l3.5,0l-1.8,3
		h-3.5L42.2,16.3z M47.1,23.2l-1.8-3l1.8-3l1.8,3L47.1,23.2z M50.1,19.4l-1.8-3h3.5l1.8,3H50.1z"/>
	<circle class="st0" cx="41.6" cy="6.1" r="1.2"/>
	<ellipse class="st0" cx="36.1" cy="15.6" rx="1.2" ry="1.2"/>
	<ellipse class="st0" cx="41.6" cy="25.1" rx="1.2" ry="1.2"/>
	<circle class="st0" cx="52.5" cy="25.1" r="1.2"/>
	<ellipse class="st0" cx="58" cy="15.6" rx="1.2" ry="1.2"/>
	<ellipse class="st0" cx="52.5" cy="6.1" rx="1.2" ry="1.2"/>
</g>
<g>
	<path class="st0" d="M53.1,43.7l1.5-2.7c0.1-0.1,0.1-0.3,0-0.5s-0.2-0.2-0.4-0.2h-3.1l-1.5-2.7c-0.2-0.3-0.7-0.3-0.8,0l-1.5,2.7
		h-3.1c-0.2,0-0.3,0.1-0.4,0.2s-0.1,0.3,0,0.5l1.5,2.7l-1.5,2.7c-0.1,0.1-0.1,0.3,0,0.5s0.2,0.2,0.4,0.2h3.1l1.5,2.7
		c0.1,0.1,0.2,0.2,0.4,0.2s0.3-0.1,0.4-0.2l1.5-2.7h3.1c0.2,0,0.3-0.1,0.4-0.2c0.1-0.1,0.1-0.3,0-0.5L53.1,43.7z M52.3,43.3h-2.2
		l1.1-1.9h2.2L52.3,43.3z M49.2,38.9l1.1,1.9l-1.1,1.9l-1.1-1.9L49.2,38.9z M45,41.3h2.2l1.1,1.9l-2.2,0L45,41.3z M46.2,44.2l2.2,0
		l-1.1,1.9H45L46.2,44.2z M49.2,48.6l-1.1-1.9l1.1-1.9l1.1,1.9L49.2,48.6z M51.2,46.2l-1.1-1.9h2.2l1.1,1.9H51.2z"/>
	<circle class="st0" cx="45.7" cy="37.7" r="0.8"/>
	<ellipse class="st0" cx="42.3" cy="43.7" rx="0.8" ry="0.8"/>
	<ellipse class="st0" cx="45.7" cy="49.8" rx="0.8" ry="0.8"/>
	<circle class="st0" cx="52.7" cy="49.8" r="0.8"/>
	<ellipse class="st0" cx="56.2" cy="43.7" rx="0.8" ry="0.8"/>
	<ellipse class="st0" cx="52.7" cy="37.7" rx="0.8" ry="0.8"/>
</g>
<g id="flat-icon-48">
	<path class="st1" d="M52.3,18.7c-4.4,0-8,3.6-8,8c0,1.1,0.9,2,2,2s2-0.9,2-2c0-2.2,1.8-4,4-4s4,1.8,4,4s-1.8,4-4,4H6.5
		c-1.1,0-2,0.9-2,2c0,1.1,0.9,2,2,2h45.8c4.4,0,8-3.6,8-8S56.7,18.7,52.3,18.7z"/>
	<path class="st1" d="M6.3,26.7h26c4.4,0,8-3.6,8-8s-3.6-8-8-8s-8,3.6-8,8c0,1.1,0.9,2,2,2s2-0.9,2-2c0-2.2,1.8-4,4-4s4,1.8,4,4
		s-1.8,4-4,4h-26c-1.1,0-2,0.9-2,2S5.2,26.7,6.3,26.7z"/>
	<path class="st1" d="M32.3,38.7h-26c-1.1,0-2,0.9-2,2s0.9,2,2,2h26c2.2,0,4,1.8,4,4s-1.8,4-4,4s-4-1.8-4-4c0-1.1-0.9-2-2-2
		s-2,0.9-2,2c0,4.4,3.6,8,8,8s8-3.6,8-8S36.7,38.7,32.3,38.7z"/>
</g>
</svg>
