<?xml version="1.0" encoding="utf-8"?>
<!-- Generator: Adobe Illustrator 19.2.1, SVG Export Plug-In . SVG Version: 6.00 Build 0)  -->
<svg version="1.1" id="XMLID_1_" xmlns="http://www.w3.org/2000/svg" xmlns:xlink="http://www.w3.org/1999/xlink" x="0px" y="0px"
	 viewBox="0 0 64 64" enable-background="new 0 0 64 64" xml:space="preserve">
<g id="flat-icon-82">
	<g>
		<path fill="#FCD95F" d="M22.38,6.6429c0,4.5962-3.4036,8-8,8c4.5964,0,8,3.4033,8,8c0-4.5967,3.4036-8,8-8
			C25.7836,14.6429,22.38,11.239,22.38,6.6429z"/>
		<path fill="#FCD95F" d="M8.38,21.7369c0,2.2981-1.7018,4-4,4c2.2982,0,4,1.7017,4,4c0-2.2983,1.7018-4,4-4
			C10.0818,25.7369,8.38,24.035,8.38,21.7369z"/>
	</g>
	<g>
		<path fill="#F3F3F3" d="M48.38,34.6429c-0.6985,0-1.3789,0.0723-2.0444,0.1868c-2.7397-4.8824-7.9585-8.1868-13.9556-8.1868
			s-11.2158,3.3043-13.9556,8.1868c-0.6655-0.1145-1.3459-0.1868-2.0444-0.1868c-6.6274,0-12,5.3726-12,12s5.3726,12,12,12h32
			c6.6274,0,12-5.3726,12-12S55.0074,34.6429,48.38,34.6429z"/>
	</g>
	<g>
		<path fill="#E1E1E1" d="M48.38,34.6429c-0.6982,0-1.3789,0.0723-2.0444,0.1868c-0.0122-0.0221-0.0288-0.0415-0.0415-0.0636
			c1.3213,2.3275,2.0859,5.0125,2.0859,7.8801c0,8.8347-7.1621,15.9967-15.9966,15.9967H48.38c6.6274,0,12-5.3726,12-12
			S55.0074,34.6429,48.38,34.6429z"/>
	</g>
</g>
</svg>
