<?xml version="1.0" encoding="utf-8"?>
<!-- Generator: Adobe Illustrator 19.2.1, SVG Export Plug-In . SVG Version: 6.00 Build 0)  -->
<svg version="1.1" id="XMLID_1_" xmlns="http://www.w3.org/2000/svg" xmlns:xlink="http://www.w3.org/1999/xlink" x="0px" y="0px"
	 viewBox="0 0 64 64" enable-background="new 0 0 64 64" xml:space="preserve">
<g id="flat-icon-64">
	<g>
		<g>
			<g>
				<path fill="#FCF1CE" d="M58.5636,28.5811l2.5935-1.5561c0.2654-0.1593,0.2654-0.5439,0-0.7032l-2.5933-1.5561
					c-1.2831-0.7699-1.6229-2.4783-0.732-3.6806l1.8004-2.4297c0.1843-0.2487,0.0371-0.6041-0.2691-0.6497l-2.9914-0.4451
					c-1.4801-0.2202-2.4478-1.6686-2.0849-3.1202l0.7335-2.9338c0.0751-0.3003-0.1969-0.5723-0.4972-0.4972l-2.9342,0.7335
					c-1.4516,0.3629-2.8998-0.6048-3.12-2.0847l-0.4451-2.9914c-0.0456-0.3062-0.401-0.4534-0.6497-0.2691L44.944,8.198
					c-1.2023,0.8908-2.9106,0.551-3.6804-0.7321l-1.5559-2.5933c-0.1593-0.2654-0.544-0.2654-0.7032,0l-1.5559,2.5933
					c-0.7698,1.2831-2.4781,1.6229-3.6804,0.7321l-2.4301-1.8005c-0.2487-0.1843-0.6041-0.0371-0.6497,0.2691L30.2433,9.658
					c-0.2202,1.48-1.6684,2.4476-3.12,2.0847l-2.9342-0.7335c-0.3003-0.0751-0.5723,0.1969-0.4972,0.4972l0.7335,2.934
					c0.3629,1.4516-0.6047,2.8998-2.0847,3.1201l-2.9916,0.4452c-0.3062,0.0456-0.4534,0.401-0.2691,0.6497l1.8004,2.4297
					c0.8909,1.2023,0.5511,2.9107-0.732,3.6806l-2.5933,1.5561c-0.2654,0.1593-0.2654,0.5439,0,0.7032l2.5935,1.5561
					c1.283,0.7698,1.6228,2.4781,0.732,3.6803L19.08,34.6913c-0.1843,0.2487-0.0371,0.6041,0.2691,0.6497l2.9916,0.4451
					c1.48,0.2202,2.4477,1.6685,2.0848,3.1201l-0.7335,2.9341c-0.0751,0.3003,0.1969,0.5723,0.4972,0.4972l2.934-0.7335
					c1.4517-0.3629,2.9,0.6048,3.1202,2.0848l0.4451,2.9914c0.0456,0.3062,0.401,0.4534,0.6497,0.2691l2.4299-1.8005
					c1.2022-0.8908,2.9105-0.551,3.6804,0.732l1.5561,2.5935c0.1593,0.2654,0.5439,0.2654,0.7032,0l1.556-2.5934
					c0.7699-1.2831,2.4782-1.6229,3.6805-0.732l2.4298,1.8005c0.2487,0.1843,0.6041,0.0371,0.6497-0.2691l0.4451-2.9914
					c0.2202-1.4801,1.6685-2.4478,3.1202-2.0848l2.934,0.7335c0.3003,0.0751,0.5723-0.1969,0.4972-0.4972l-0.7335-2.9341
					c-0.3629-1.4516,0.6048-2.8998,2.0848-3.1201l2.9916-0.4451c0.3062-0.0456,0.4534-0.401,0.2691-0.6497l-1.8006-2.4299
					C56.9408,31.0592,57.2806,29.3509,58.5636,28.5811z"/>
			</g>
		</g>
		<g>
			<circle fill="#F9DB7B" cx="39.3562" cy="26.6734" r="13.7766"/>
		</g>
	</g>
	<g>
		<path fill="#F3F3F3" d="M47.3561,36.6735c-0.6985,0-1.3789,0.0723-2.0444,0.1868c-2.7397-4.8824-7.9585-8.1868-13.9556-8.1868
			s-11.2158,3.3043-13.9556,8.1868c-0.6655-0.1145-1.3459-0.1868-2.0444-0.1868c-6.6274,0-12,5.3726-12,12s5.3726,12,12,12h32
			c6.6274,0,12-5.3726,12-12S53.9835,36.6735,47.3561,36.6735z"/>
	</g>
	<g>
		<path fill="#E1E1E1" d="M47.3561,36.6735c-0.6982,0-1.3789,0.0723-2.0444,0.1868c-0.0122-0.0221-0.0288-0.0415-0.0415-0.0636
			c1.3213,2.3275,2.0859,5.0125,2.0859,7.8801c0,8.8347-7.1621,15.9967-15.9966,15.9967h15.9966c6.6274,0,12-5.3726,12-12
			S53.9835,36.6735,47.3561,36.6735z"/>
	</g>
</g>
</svg>
