<?xml version="1.0" encoding="utf-8"?>
<!-- Generator: Adobe Illustrator 22.0.0, SVG Export Plug-In . SVG Version: 6.00 Build 0)  -->
<svg version="1.1" id="图层_1" xmlns="http://www.w3.org/2000/svg" xmlns:xlink="http://www.w3.org/1999/xlink" x="0px" y="0px"
	 viewBox="0 0 208.2 200" style="enable-background:new 0 0 208.2 200;" xml:space="preserve">
<style type="text/css">
	.st0{fill:#DD9E5F;}
</style>
<path class="st0" d="M0.8,189c0-6.1,5-11,11.1-11h185.5c6.1,0,11,4.9,11.1,11c0,6.1-5,11-11.1,11H11.8C5.7,200,0.8,195.1,0.8,189z
	 M0,147.4c0-6.1,5-11,11.1-11h102.3c6.1,0,11,4.9,11.1,11c0,6.1-5,11-11.1,11H11.1C5,158.5,0,153.5,0,147.4z M10.7,101.9
	c0-7.2,5.9-13,13.1-13c7.2,0,13,5.8,13.1,13c0,0,0,0,0,0c0,7.2-5.9,13-13.1,13C16.6,114.9,10.7,109.1,10.7,101.9z M79.3,101.9
	c0-7.2,5.9-13,13.1-13c0,0,0,0,0,0c7.2,0,13,5.8,13.1,13c0,0,0,0,0,0c0,7.2-5.9,13-13.1,13C85.1,114.9,79.3,109.1,79.3,101.9z
	 M147.8,94.2c0-7.2,5.9-13,13.1-13c7.2,0,13,5.8,13,13c0,7.2-5.9,13-13,13C153.7,107.2,147.8,101.4,147.8,94.2
	C147.8,94.2,147.8,94.2,147.8,94.2z M159.4,148.1c0-7.2,5.9-13,13.1-13c0,0,0,0,0,0c7.2,0,13,5.8,13.1,13c0,0,0,0,0,0
	c0,7.2-5.9,13-13.1,13C165.2,161.1,159.4,155.3,159.4,148.1z M56,67.1c0-7.2,5.9-13,13.1-13c0,0,0,0,0,0c7.2,0,13,5.8,13,13
	c0,7.2-5.9,13-13,13C61.8,80.1,56,74.3,56,67.1z M116.3,59.4c0-7.2,5.9-13,13.1-13c7.2,0,13,5.8,13.1,13c0,7.2-5.9,13-13.1,13
	c0,0,0,0,0,0C122.1,72.4,116.3,66.6,116.3,59.4C116.3,59.4,116.3,59.4,116.3,59.4z M60.2,13c0-7.2,5.9-13,13.1-13
	c7.2,0,13,5.8,13.1,13c0,7.2-5.9,13-13.1,13c0,0,0,0,0,0C66,26,60.2,20.2,60.2,13C60.2,13,60.2,13,60.2,13z M170.3,36.1
	c0-7.2,5.9-13,13.1-13c7.2,0,13,5.8,13,13c0,7.2-5.9,13-13,13C176.1,49.1,170.3,43.3,170.3,36.1L170.3,36.1z"/>
</svg>
