<?xml version="1.0" encoding="utf-8"?>
<!-- Generator: Adobe Illustrator 22.0.0, SVG Export Plug-In . SVG Version: 6.00 Build 0)  -->
<svg version="1.1" id="XMLID_1_" xmlns="http://www.w3.org/2000/svg" xmlns:xlink="http://www.w3.org/1999/xlink" x="0px" y="0px"
	 viewBox="0 0 64 64" style="enable-background:new 0 0 64 64;" xml:space="preserve">
<style type="text/css">
	.st0{fill:#F3F3F3;}
	.st1{fill:#E1E1E1;}
	.st2{fill:#A4C4E7;}
</style>
<path class="st0" d="M48.9,12.7c-0.7,0-1.4,0.1-2,0.2c-2.7-4.9-8-8.2-14-8.2s-11.2,3.3-14,8.2c-0.7-0.1-1.3-0.2-2-0.2
	c-6.6,0-12,5.4-12,12s5.4,12,12,12h32c6.6,0,12-5.4,12-12S55.5,12.7,48.9,12.7z"/>
<path class="st1" d="M48.9,12.7c-0.7,0-1.4,0.1-2,0.2c0,0,0,0,0-0.1c1.3,2.3,2.1,5,2.1,7.9c0,8.8-7.2,16-16,16h16
	c6.6,0,12-5.4,12-12S55.5,12.7,48.9,12.7z"/>
<path class="st2" d="M11.2,40.8c-1.7,1.7-4,3.4-4,5.7c0,5.3,8,5.3,8,0C15.2,44.2,12.9,42.5,11.2,40.8z"/>
<path class="st2" d="M28.1,40.8c-1.7,1.7-4,3.4-4,5.7c0,5.3,8,5.3,8,0C32.1,44.2,29.8,42.5,28.1,40.8z"/>
<path class="st2" d="M19.7,47.2c-2,2-4.7,3.9-4.7,6.6c0,6.2,9.3,6.2,9.3,0C24.3,51.2,21.7,49.2,19.7,47.2z"/>
<path class="st2" d="M36.8,47.2c-2,2-4.7,3.9-4.7,6.6c0,6.2,9.3,6.2,9.3,0C41.4,51.2,38.8,49.2,36.8,47.2z"/>
<path class="st2" d="M53.9,47.2c-2,2-4.7,3.9-4.7,6.6c0,6.2,9.3,6.2,9.3,0C58.6,51.2,56,49.2,53.9,47.2z"/>
<path class="st2" d="M44.9,40.8c-1.7,1.7-4,3.4-4,5.7c0,5.3,8,5.3,8,0C48.9,44.2,46.7,42.5,44.9,40.8z"/>
<g id="Layer_2_7_">
</g>
<g id="Layer_3_7_">
</g>
</svg>
