<?xml version="1.0" encoding="utf-8"?>
<!-- Generator: Adobe Illustrator 22.0.0, SVG Export Plug-In . SVG Version: 6.00 Build 0)  -->
<svg version="1.1" id="XMLID_1_" xmlns="http://www.w3.org/2000/svg" xmlns:xlink="http://www.w3.org/1999/xlink" x="0px" y="0px"
	 viewBox="0 0 64 64" style="enable-background:new 0 0 64 64;" xml:space="preserve">
<style type="text/css">
	.st0{fill:#F3F3F3;}
	.st1{fill:#E1E1E1;}
	.st2{fill:#A4C4E7;}
	.st3{fill:#70A9DC;}
</style>
<path class="st0" d="M48.9,17c-0.7,0-1.4,0.1-2,0.2c-2.7-4.9-8-8.2-14-8.2s-11.2,3.3-14,8.2c-0.7-0.1-1.3-0.2-2-0.2
	c-6.6,0-12,5.4-12,12s5.4,12,12,12h32c6.6,0,12-5.4,12-12S55.5,17,48.9,17z"/>
<path class="st1" d="M48.9,17c-0.7,0-1.4,0.1-2,0.2c0,0,0,0,0-0.1c1.3,2.3,2.1,5,2.1,7.9c0,8.8-7.2,16-16,16h16c6.6,0,12-5.4,12-12
	S55.5,17,48.9,17z"/>
<g>
	<g id="flat-icon-56">
		<path class="st2" d="M12.7,48.8l1-1.7c0.1-0.1,0.1-0.2,0-0.3c-0.1-0.1-0.2-0.2-0.3-0.2h-2l-1-1.7c-0.1-0.2-0.4-0.2-0.5,0l-1,1.7
			h-2c-0.1,0-0.2,0.1-0.3,0.2s-0.1,0.2,0,0.3l1,1.7l-1,1.7c-0.1,0.1-0.1,0.2,0,0.3S6.8,51,6.9,51h2l1,1.7c0.1,0.1,0.2,0.2,0.3,0.2
			c0.1,0,0.2-0.1,0.3-0.2l1-1.7h2c0.1,0,0.2-0.1,0.3-0.2c0.1-0.1,0.1-0.2,0-0.3L12.7,48.8z M12.1,48.5h-1.4l0.7-1.2h1.4L12.1,48.5z
			 M10.2,45.7l0.7,1.2l-0.7,1.2l-0.7-1.2L10.2,45.7z M7.5,47.2h1.4l0.7,1.2l-1.4,0L7.5,47.2z M8.2,49.1l1.4,0l-0.7,1.2H7.5L8.2,49.1
			z M10.2,51.9l-0.7-1.2l0.7-1.2l0.7,1.2L10.2,51.9z M11.4,50.3l-0.7-1.2h1.4l0.7,1.2H11.4z"/>
		<circle class="st3" cx="7.9" cy="44.9" r="0.5"/>
		<ellipse class="st3" cx="5.7" cy="48.8" rx="0.5" ry="0.5"/>
		<ellipse class="st3" cx="7.9" cy="52.6" rx="0.5" ry="0.5"/>
		<circle class="st3" cx="12.4" cy="52.6" r="0.5"/>
		<ellipse class="st3" cx="14.6" cy="48.8" rx="0.5" ry="0.5"/>
		<ellipse class="st3" cx="12.4" cy="44.9" rx="0.5" ry="0.5"/>
	</g>
	<g id="flat-icon-56_1_">
		<path class="st2" d="M30.6,48.8l1-1.7c0.1-0.1,0.1-0.2,0-0.3s-0.2-0.2-0.3-0.2h-2l-1-1.7c-0.1-0.2-0.4-0.2-0.5,0l-1,1.7h-2
			c-0.1,0-0.2,0.1-0.3,0.2c-0.1,0.1-0.1,0.2,0,0.3l1,1.7l-1,1.7c-0.1,0.1-0.1,0.2,0,0.3c0.1,0.1,0.2,0.2,0.3,0.2h2l1,1.7
			c0.1,0.1,0.2,0.2,0.3,0.2c0.1,0,0.2-0.1,0.3-0.2l1-1.7h2c0.1,0,0.2-0.1,0.3-0.2c0.1-0.1,0.1-0.2,0-0.3L30.6,48.8z M30.1,48.5h-1.4
			l0.7-1.2h1.4L30.1,48.5z M28.1,45.7l0.7,1.2l-0.7,1.2l-0.7-1.2L28.1,45.7z M25.4,47.2h1.4l0.7,1.2l-1.4,0L25.4,47.2z M26.1,49.1
			l1.4,0l-0.7,1.2h-1.4L26.1,49.1z M28.1,51.9l-0.7-1.2l0.7-1.2l0.7,1.2L28.1,51.9z M29.3,50.3l-0.7-1.2h1.4l0.7,1.2H29.3z"/>
		<circle class="st3" cx="25.9" cy="44.9" r="0.5"/>
		<ellipse class="st3" cx="23.6" cy="48.8" rx="0.5" ry="0.5"/>
		<ellipse class="st3" cx="25.8" cy="52.6" rx="0.5" ry="0.5"/>
		<circle class="st3" cx="30.3" cy="52.6" r="0.5"/>
		<ellipse class="st3" cx="32.6" cy="48.8" rx="0.5" ry="0.5"/>
		<ellipse class="st3" cx="30.3" cy="44.9" rx="0.5" ry="0.5"/>
	</g>
	<g id="flat-icon-56_2_">
		<path class="st2" d="M48,48.8l1-1.7c0.1-0.1,0.1-0.2,0-0.3c-0.1-0.1-0.2-0.2-0.3-0.2h-2l-1-1.7c-0.1-0.2-0.4-0.2-0.5,0l-1,1.7h-2
			c-0.1,0-0.2,0.1-0.3,0.2s-0.1,0.2,0,0.3l1,1.7l-1,1.7c-0.1,0.1-0.1,0.2,0,0.3s0.2,0.2,0.3,0.2h2l1,1.7c0.1,0.1,0.2,0.2,0.3,0.2
			c0.1,0,0.2-0.1,0.3-0.2l1-1.7h2c0.1,0,0.2-0.1,0.3-0.2c0.1-0.1,0.1-0.2,0-0.3L48,48.8z M47.4,48.5H46l0.7-1.2h1.4L47.4,48.5z
			 M45.5,45.7l0.7,1.2l-0.7,1.2l-0.7-1.2L45.5,45.7z M42.8,47.2h1.4l0.7,1.2l-1.4,0L42.8,47.2z M43.5,49.1l1.4,0l-0.7,1.2h-1.4
			L43.5,49.1z M45.5,51.9l-0.7-1.2l0.7-1.2l0.7,1.2L45.5,51.9z M46.7,50.3L46,49.1h1.4l0.7,1.2H46.7z"/>
		<circle class="st3" cx="43.2" cy="44.9" r="0.5"/>
		<ellipse class="st3" cx="41" cy="48.8" rx="0.5" ry="0.5"/>
		<ellipse class="st3" cx="43.2" cy="52.6" rx="0.5" ry="0.5"/>
		<circle class="st3" cx="47.7" cy="52.6" r="0.5"/>
		<ellipse class="st3" cx="49.9" cy="48.8" rx="0.5" ry="0.5"/>
		<ellipse class="st3" cx="47.7" cy="44.9" rx="0.5" ry="0.5"/>
	</g>
	<g id="flat-icon-56_3_">
		<path class="st2" d="M21.6,56.4l1.1-2c0.1-0.1,0.1-0.2,0-0.4c-0.1-0.1-0.2-0.2-0.3-0.2h-2.3l-1.1-2c-0.1-0.2-0.5-0.2-0.6,0l-1.1,2
			h-2.3c-0.1,0-0.2,0.1-0.3,0.2c-0.1,0.1-0.1,0.2,0,0.4l1.1,2l-1.1,2c-0.1,0.1-0.1,0.2,0,0.4c0.1,0.1,0.2,0.2,0.3,0.2h2.3l1.1,2
			c0.1,0.1,0.2,0.2,0.3,0.2s0.2-0.1,0.3-0.2l1.1-2h2.3c0.1,0,0.2-0.1,0.3-0.2c0.1-0.1,0.1-0.2,0-0.4L21.6,56.4z M21,56h-1.6l0.8-1.4
			h1.6L21,56z M18.7,52.8l0.8,1.4l-0.8,1.4l-0.8-1.4L18.7,52.8z M15.7,54.6h1.6l0.8,1.4l-1.6,0L15.7,54.6z M16.5,56.7l1.6,0
			l-0.8,1.4h-1.6L16.5,56.7z M18.7,59.9l-0.8-1.4l0.8-1.4l0.8,1.4L18.7,59.9z M20.2,58.1l-0.8-1.4H21l0.8,1.4H20.2z"/>
		<circle class="st3" cx="16.2" cy="51.9" r="0.6"/>
		<ellipse class="st3" cx="13.6" cy="56.4" rx="0.6" ry="0.6"/>
		<ellipse class="st3" cx="16.2" cy="60.8" rx="0.6" ry="0.6"/>
		<circle class="st3" cx="21.3" cy="60.8" r="0.6"/>
		<ellipse class="st3" cx="23.8" cy="56.4" rx="0.6" ry="0.6"/>
		<ellipse class="st3" cx="21.3" cy="51.9" rx="0.6" ry="0.6"/>
	</g>
	<g id="flat-icon-56_4_">
		<path class="st2" d="M40.2,56.4l1.1-2c0.1-0.1,0.1-0.2,0-0.4c-0.1-0.1-0.2-0.2-0.3-0.2h-2.3l-1.1-2c-0.1-0.2-0.5-0.2-0.6,0l-1.1,2
			h-2.3c-0.1,0-0.2,0.1-0.3,0.2c-0.1,0.1-0.1,0.2,0,0.4l1.1,2l-1.1,2c-0.1,0.1-0.1,0.2,0,0.4c0.1,0.1,0.2,0.2,0.3,0.2h2.3l1.1,2
			c0.1,0.1,0.2,0.2,0.3,0.2c0.1,0,0.2-0.1,0.3-0.2l1.1-2H41c0.1,0,0.2-0.1,0.3-0.2c0.1-0.1,0.1-0.2,0-0.4L40.2,56.4z M39.6,56H38
			l0.8-1.4h1.6L39.6,56z M37.3,52.8l0.8,1.4l-0.8,1.4l-0.8-1.4L37.3,52.8z M34.3,54.6h1.6l0.8,1.4l-1.6,0L34.3,54.6z M35.1,56.7
			l1.6,0l-0.8,1.4h-1.6L35.1,56.7z M37.3,59.9l-0.8-1.4l0.8-1.4l0.8,1.4L37.3,59.9z M38.8,58.1L38,56.7h1.6l0.8,1.4H38.8z"/>
		<circle class="st3" cx="34.8" cy="51.9" r="0.6"/>
		<ellipse class="st3" cx="32.2" cy="56.4" rx="0.6" ry="0.6"/>
		<ellipse class="st3" cx="34.8" cy="60.8" rx="0.6" ry="0.6"/>
		<circle class="st3" cx="39.9" cy="60.8" r="0.6"/>
		<ellipse class="st3" cx="42.5" cy="56.4" rx="0.6" ry="0.6"/>
		<ellipse class="st3" cx="39.9" cy="51.9" rx="0.6" ry="0.6"/>
	</g>
	<g id="flat-icon-56_5_">
		<path class="st2" d="M57.8,56.4l1.1-2c0.1-0.1,0.1-0.2,0-0.4c-0.1-0.1-0.2-0.2-0.3-0.2h-2.3l-1.1-2c-0.1-0.2-0.5-0.2-0.6,0l-1.1,2
			h-2.3c-0.1,0-0.2,0.1-0.3,0.2c-0.1,0.1-0.1,0.2,0,0.4l1.1,2l-1.1,2c-0.1,0.1-0.1,0.2,0,0.4c0.1,0.1,0.2,0.2,0.3,0.2h2.3l1.1,2
			c0.1,0.1,0.2,0.2,0.3,0.2c0.1,0,0.2-0.1,0.3-0.2l1.1-2h2.3c0.1,0,0.2-0.1,0.3-0.2c0.1-0.1,0.1-0.2,0-0.4L57.8,56.4z M57.2,56h-1.6
			l0.8-1.4H58L57.2,56z M54.9,52.8l0.8,1.4l-0.8,1.4l-0.8-1.4L54.9,52.8z M51.9,54.6h1.6l0.8,1.4l-1.6,0L51.9,54.6z M52.7,56.7
			l1.6,0l-0.8,1.4h-1.6L52.7,56.7z M54.9,59.9l-0.8-1.4l0.8-1.4l0.8,1.4L54.9,59.9z M56.4,58.1l-0.8-1.4h1.6l0.8,1.4H56.4z"/>
		<circle class="st3" cx="52.4" cy="51.9" r="0.6"/>
		<ellipse class="st3" cx="49.8" cy="56.4" rx="0.6" ry="0.6"/>
		<ellipse class="st3" cx="52.4" cy="60.8" rx="0.6" ry="0.6"/>
		<circle class="st3" cx="57.5" cy="60.8" r="0.6"/>
		<ellipse class="st3" cx="60" cy="56.4" rx="0.6" ry="0.6"/>
		<ellipse class="st3" cx="57.5" cy="51.9" rx="0.6" ry="0.6"/>
	</g>
</g>
</svg>
