<?xml version="1.0" encoding="utf-8"?>
<!-- Generator: Adobe Illustrator 22.0.0, SVG Export Plug-In . SVG Version: 6.00 Build 0)  -->
<svg version="1.1" id="XMLID_2_" xmlns="http://www.w3.org/2000/svg" xmlns:xlink="http://www.w3.org/1999/xlink" x="0px" y="0px"
	 viewBox="0 0 64 64" style="enable-background:new 0 0 64 64;" xml:space="preserve">
<style type="text/css">
	.st0{fill:#565656;}
</style>
<path class="st0" d="M17,20.8h24c1.1,0,2-0.9,2-2c0-1.1-0.9-2-2-2H17c-1.1,0-2,0.9-2,2C15,19.9,15.9,20.8,17,20.8z"/>
<path class="st0" d="M51,40.8H19c-1.1,0-2,0.9-2,2c0,1.1,0.9,2,2,2h32c1.1,0,2-0.9,2-2C53,41.7,52.1,40.8,51,40.8z"/>
<path class="st0" d="M59,32.8H7c-1.1,0-2,0.9-2,2c0,1.1,0.9,2,2,2h52c1.1,0,2-0.9,2-2C61,33.7,60.1,32.8,59,32.8z"/>
<path class="st0" d="M11,28.8h40c1.1,0,2-0.9,2-2c0-1.1-0.9-2-2-2H11c-1.1,0-2,0.9-2,2C9,27.9,9.9,28.8,11,28.8z"/>
<circle class="st0" cx="11.1" cy="19" r="2"/>
<circle class="st0" cx="57.1" cy="43" r="2"/>
</svg>
