<?xml version="1.0" encoding="utf-8"?>
<!-- Generator: Adobe Illustrator 19.2.1, SVG Export Plug-In . SVG Version: 6.00 Build 0)  -->
<svg version="1.1" id="XMLID_1_" xmlns="http://www.w3.org/2000/svg" xmlns:xlink="http://www.w3.org/1999/xlink" x="0px" y="0px"
	 viewBox="0 0 64 64" enable-background="new 0 0 64 64" xml:space="preserve">
<g id="flat-icon-56">
	<path fill="#A4C4E7" d="M49.0162,32.6716l6.3359-10.9727c0.3574-0.6191,0.3574-1.3809,0-2s-1.0176-1-1.7324-1H40.9498
		l-6.334-10.9717c-0.7148-1.2383-2.75-1.2383-3.4648,0l-6.334,10.9717H12.147c-0.7148,0-1.375,0.3809-1.7324,1s-0.3574,1.3809,0,2
		l6.3359,10.9727l-6.3359,10.9717c-0.3574,0.6191-0.3574,1.3809,0,2s1.0176,1,1.7324,1h12.6699l6.334,10.9717
		c0.3574,0.6191,1.0176,1,1.7324,1s1.375-0.3809,1.7324-1l6.334-10.9717h12.6699c0.7148,0,1.375-0.3809,1.7324-1s0.3574-1.3809,0-2
		L49.0162,32.6716z M45.5513,30.6735h-9.2041l4.6035-7.9746h9.2041L45.5513,30.6735z M32.8834,12.7272l4.6025,7.9718l-4.6025,7.9733
		l-4.6025-7.9733L32.8834,12.7272z M15.6119,22.6989h9.2041l4.603,7.9741l-9.2046-0.0013L15.6119,22.6989z M20.2144,34.6717
		l9.2046,0.0013l-4.6025,7.9702h-9.2046L20.2144,34.6717z M32.8834,52.6149l-4.6025-7.9716l4.6025-7.9698l4.6025,7.9698
		L32.8834,52.6149z M40.9502,42.6432l-4.6021-7.9697h9.2056l4.6011,7.9697H40.9502z"/>
	<circle fill="#70A9DC" cx="18.519" cy="7.7841" r="3.1106"/>
	
		<ellipse transform="matrix(0.5 -0.866 0.866 0.5 -26.2187 19.9251)" fill="#70A9DC" cx="4.1463" cy="32.6686" rx="3.1101" ry="3.1101"/>
	
		<ellipse transform="matrix(0.866 -0.5 0.5 0.866 -26.2991 16.9666)" fill="#70A9DC" cx="18.5106" cy="57.5581" rx="3.1101" ry="3.1101"/>
	<circle fill="#70A9DC" cx="47.2476" cy="57.5629" r="3.1106"/>
	
		<ellipse transform="matrix(0.5 -0.866 0.866 0.5 2.5099 69.704)" fill="#70A9DC" cx="61.6203" cy="32.6784" rx="3.1101" ry="3.1101"/>
	
		<ellipse transform="matrix(0.866 -0.5 0.5 0.866 2.4366 24.6715)" fill="#70A9DC" cx="47.2561" cy="7.789" rx="3.1101" ry="3.1101"/>
</g>
</svg>
