<?xml version="1.0" encoding="utf-8"?>
<!-- Generator: Adobe Illustrator 22.0.0, SVG Export Plug-In . SVG Version: 6.00 Build 0)  -->
<svg version="1.1" id="XMLID_2_" xmlns="http://www.w3.org/2000/svg" xmlns:xlink="http://www.w3.org/1999/xlink" x="0px" y="0px"
	 viewBox="0 0 64 64" style="enable-background:new 0 0 64 64;" xml:space="preserve">
<style type="text/css">
	.st0{fill:none;stroke:#70A9DD;stroke-width:4;stroke-linecap:round;stroke-miterlimit:10;}
	.st1{fill:#A4C4E7;}
</style>
<g>
	<path class="st0" d="M32,33.1c0,5.5,4.5,10,10,10s10-4.5,10-10"/>
	<path class="st0" d="M32,33.1c0-5.5-4.5-10-10-10s-10,4.5-10,10"/>
</g>
<path class="st1" d="M42,26.9c-1.4,1.4-3.3,2.7-3.3,4.6c0,4.3,6.4,4.3,6.4,0C45.2,29.7,43.4,28.3,42,26.9z"/>
<path class="st1" d="M22,30.8c-1.4,1.4-3.3,2.7-3.3,4.6c0,4.3,6.4,4.3,6.4,0C25.2,33.6,23.4,32.2,22,30.8z"/>
<g id="Drlbi2.tif">
	
		<image style="overflow:visible;" width="230" height="176" id="Layer_0_1_" xlink:href="EA3E9EC7AA814D77.png"  transform="matrix(0.5 0 0 0.5 83.2973 42.825)">
	</image>
</g>
</svg>
