<?xml version="1.0" encoding="utf-8"?>
<!-- Generator: Adobe Illustrator 22.0.0, SVG Export Plug-In . SVG Version: 6.00 Build 0)  -->
<svg version="1.1" id="XMLID_1_" xmlns="http://www.w3.org/2000/svg" xmlns:xlink="http://www.w3.org/1999/xlink" x="0px" y="0px"
	 viewBox="0 0 64 64" style="enable-background:new 0 0 64 64;" xml:space="preserve">
<style type="text/css">
	.st0{fill:#F3F3F3;}
	.st1{fill:#E1E1E1;}
	.st2{fill:#A4C4E7;}
</style>
<g>
	<path class="st0" d="M48.9,17c-0.7,0-1.4,0.1-2,0.2c-2.7-4.9-8-8.2-14-8.2s-11.2,3.3-14,8.2c-0.7-0.1-1.3-0.2-2-0.2
		c-6.6,0-12,5.4-12,12s5.4,12,12,12h32c6.6,0,12-5.4,12-12S55.5,17,48.9,17z"/>
	<path class="st1" d="M48.9,17c-0.7,0-1.4,0.1-2,0.2c0,0,0,0,0-0.1c1.3,2.3,2.1,5,2.1,7.9c0,8.8-7.2,16-16,16h16c6.6,0,12-5.4,12-12
		S55.5,17,48.9,17z"/>
</g>
<g>
	<path class="st2" d="M31.1,30.3l-4.9,8.4c-0.1,0.2,0,0.4,0.2,0.4h9.8c0.2,0,0.3-0.2,0.2-0.4l-4.9-8.4
		C31.5,30.1,31.2,30.1,31.1,30.3z"/>
	<path class="st2" d="M31.6,49.1l4.9-8.4c0.1-0.2,0-0.4-0.2-0.4h-9.8c-0.2,0-0.3,0.2-0.2,0.4l4.9,8.4C31.2,49.3,31.5,49.3,31.6,49.1
		z"/>
	<path class="st2" d="M22.1,44.4l-3.4,5.9c-0.1,0.2,0,0.4,0.2,0.4h6.9c0.2,0,0.3-0.2,0.2-0.4l-3.4-5.9
		C22.5,44.2,22.2,44.2,22.1,44.4z"/>
	<path class="st2" d="M22.6,57.9L26,52c0.1-0.2,0-0.4-0.2-0.4h-6.9c-0.2,0-0.3,0.2-0.2,0.4l3.4,5.9C22.2,58.1,22.5,58.1,22.6,57.9z"
		/>
	<path class="st2" d="M36.2,51.9l-2.5,4.2c-0.1,0.2,0,0.4,0.2,0.4h4.9c0.2,0,0.3-0.2,0.2-0.4l-2.5-4.2
		C36.6,51.7,36.3,51.7,36.2,51.9z"/>
	<path class="st2" d="M36.7,61.8l2.5-4.2c0.1-0.2,0-0.4-0.2-0.4H34c-0.2,0-0.3,0.2-0.2,0.4l2.5,4.2C36.3,62,36.6,62,36.7,61.8z"/>
</g>
</svg>
