<?xml version="1.0" encoding="utf-8"?>
<!-- Generator: Adobe Illustrator 22.0.0, SVG Export Plug-In . SVG Version: 6.00 Build 0)  -->
<svg version="1.1" id="XMLID_2_" xmlns="http://www.w3.org/2000/svg" xmlns:xlink="http://www.w3.org/1999/xlink" x="0px" y="0px"
	 viewBox="0 0 64 64" style="enable-background:new 0 0 64 64;" xml:space="preserve">
<style type="text/css">
	.st0{fill:#DD9E5F;}
	.st1{fill:none;stroke:#DD9E5F;stroke-width:4;stroke-linecap:round;stroke-miterlimit:10;}
</style>
<g id="flat-icon-48">
	<path class="st0" d="M52.3,18.7c-4.4,0-8,3.6-8,8c0,1.1,0.9,2,2,2s2-0.9,2-2c0-2.2,1.8-4,4-4s4,1.8,4,4s-1.8,4-4,4H6.5
		c-1.1,0-2,0.9-2,2c0,1.1,0.9,2,2,2h45.8c4.4,0,8-3.6,8-8S56.7,18.7,52.3,18.7z"/>
	<path class="st0" d="M6.3,26.7h26c4.4,0,8-3.6,8-8s-3.6-8-8-8s-8,3.6-8,8c0,1.1,0.9,2,2,2s2-0.9,2-2c0-2.2,1.8-4,4-4s4,1.8,4,4
		s-1.8,4-4,4h-26c-1.1,0-2,0.9-2,2S5.2,26.7,6.3,26.7z"/>
	<path class="st0" d="M32.3,38.7h-26c-1.1,0-2,0.9-2,2s0.9,2,2,2h26c2.2,0,4,1.8,4,4s-1.8,4-4,4s-4-1.8-4-4c0-1.1-0.9-2-2-2
		s-2,0.9-2,2c0,4.4,3.6,8,8,8s8-3.6,8-8S36.7,38.7,32.3,38.7z"/>
</g>
<circle class="st0" cx="48.4" cy="11.4" r="2.3"/>
<circle class="st0" cx="39.1" cy="8.4" r="2.3"/>
<circle class="st0" cx="22.3" cy="10.7" r="2.3"/>
<circle class="st0" cx="43" cy="20.3" r="2.3"/>
<circle class="st0" cx="42" cy="41" r="2.3"/>
<circle class="st0" cx="53.7" cy="44.4" r="2.3"/>
<circle class="st0" cx="44.8" cy="50.7" r="2.3"/>
<circle class="st0" cx="53" cy="54" r="2.3"/>
<circle class="st0" cx="38" cy="57.8" r="2.3"/>
<circle class="st0" cx="24.9" cy="57.8" r="2.3"/>
<circle class="st0" cx="11.7" cy="56.3" r="2.3"/>
<path class="st0" d="M16.7,19.2H9.6c-1.1,0-2-0.9-2-2v0c0-1.1,0.9-2,2-2h7.1c1.1,0,2,0.9,2,2v0C18.7,18.3,17.8,19.2,16.7,19.2z"/>
<path class="st0" d="M17.1,50.7H6.3c-1.1,0-2-0.9-2-2v0c0-1.1,0.9-2,2-2h10.8c1.1,0,2,0.9,2,2v0C19.1,49.8,18.2,50.7,17.1,50.7z"/>
<path class="st1" d="M9.4,17.2c-2.1,0-3.7-1.7-3.7-3.7s1.7-3.7,3.7-3.7c1.5,0,2.9,0.9,3.4,2.3"/>
</svg>
