<?xml version="1.0" encoding="utf-8"?>
<!-- Generator: Adobe Illustrator 22.0.0, SVG Export Plug-In . SVG Version: 6.00 Build 0)  -->
<svg version="1.1" id="XMLID_1_" xmlns="http://www.w3.org/2000/svg" xmlns:xlink="http://www.w3.org/1999/xlink" x="0px" y="0px"
	 viewBox="0 0 64 64" style="enable-background:new 0 0 64 64;" xml:space="preserve">
<style type="text/css">
	.st0{fill:#F3F3F3;}
	.st1{fill:#E1E1E1;}
	.st2{fill:#A4C4E7;}
	.st3{fill:#70A9DC;}
</style>
<g>
	<path class="st0" d="M48.9,17c-0.7,0-1.4,0.1-2,0.2c-2.7-4.9-8-8.2-14-8.2s-11.2,3.3-14,8.2c-0.7-0.1-1.3-0.2-2-0.2
		c-6.6,0-12,5.4-12,12s5.4,12,12,12h32c6.6,0,12-5.4,12-12S55.5,17,48.9,17z"/>
	<path class="st1" d="M48.9,17c-0.7,0-1.4,0.1-2,0.2c0,0,0,0,0-0.1c1.3,2.3,2.1,5,2.1,7.9c0,8.8-7.2,16-16,16h16c6.6,0,12-5.4,12-12
		S55.5,17,48.9,17z"/>
</g>
<g id="flat-icon-56">
	<path class="st2" d="M19,50.8l1.3-2.2c0.1-0.1,0.1-0.3,0-0.4S20.1,48,19.9,48h-2.5l-1.3-2.2c-0.1-0.2-0.6-0.2-0.7,0L14.2,48h-2.5
		c-0.1,0-0.3,0.1-0.3,0.2c-0.1,0.1-0.1,0.3,0,0.4l1.3,2.2L11.3,53c-0.1,0.1-0.1,0.3,0,0.4c0.1,0.1,0.2,0.2,0.3,0.2h2.5l1.3,2.2
		c0.1,0.1,0.2,0.2,0.3,0.2s0.3-0.1,0.3-0.2l1.3-2.2h2.5c0.1,0,0.3-0.1,0.3-0.2c0.1-0.1,0.1-0.3,0-0.4L19,50.8z M18.3,50.4h-1.8
		l0.9-1.6h1.8L18.3,50.4z M15.8,46.8l0.9,1.6L15.8,50l-0.9-1.6L15.8,46.8z M12.3,48.8h1.8l0.9,1.6l-1.8,0L12.3,48.8z M13.2,51.2
		l1.8,0l-0.9,1.6h-1.8L13.2,51.2z M15.8,54.8l-0.9-1.6l0.9-1.6l0.9,1.6L15.8,54.8z M17.4,52.8l-0.9-1.6h1.8l0.9,1.6H17.4z"/>
	<circle class="st3" cx="12.9" cy="45.8" r="0.6"/>
	<ellipse class="st3" cx="10" cy="50.8" rx="0.6" ry="0.6"/>
	<ellipse class="st3" cx="12.9" cy="55.7" rx="0.6" ry="0.6"/>
	<circle class="st3" cx="18.7" cy="55.7" r="0.6"/>
	<ellipse class="st3" cx="21.5" cy="50.8" rx="0.6" ry="0.6"/>
	<ellipse class="st3" cx="18.7" cy="45.8" rx="0.6" ry="0.6"/>
</g>
<g id="flat-icon-56_1_">
	<path class="st2" d="M36.5,50.8l1.3-2.2c0.1-0.1,0.1-0.3,0-0.4C37.7,48,37.5,48,37.4,48h-2.5l-1.3-2.2c-0.1-0.2-0.6-0.2-0.7,0
		L31.6,48h-2.5c-0.1,0-0.3,0.1-0.3,0.2s-0.1,0.3,0,0.4l1.3,2.2L28.7,53c-0.1,0.1-0.1,0.3,0,0.4c0.1,0.1,0.2,0.2,0.3,0.2h2.5l1.3,2.2
		c0.1,0.1,0.2,0.2,0.3,0.2c0.1,0,0.3-0.1,0.3-0.2l1.3-2.2h2.5c0.1,0,0.3-0.1,0.3-0.2c0.1-0.1,0.1-0.3,0-0.4L36.5,50.8z M35.8,50.4
		h-1.8l0.9-1.6h1.8L35.8,50.4z M33.2,46.8l0.9,1.6L33.2,50l-0.9-1.6L33.2,46.8z M29.8,48.8h1.8l0.9,1.6l-1.8,0L29.8,48.8z
		 M30.7,51.2l1.8,0l-0.9,1.6h-1.8L30.7,51.2z M33.2,54.8l-0.9-1.6l0.9-1.6l0.9,1.6L33.2,54.8z M34.8,52.8l-0.9-1.6h1.8l0.9,1.6H34.8
		z"/>
	<circle class="st3" cx="30.4" cy="45.8" r="0.6"/>
	<ellipse class="st3" cx="27.5" cy="50.8" rx="0.6" ry="0.6"/>
	<ellipse class="st3" cx="30.4" cy="55.7" rx="0.6" ry="0.6"/>
	<circle class="st3" cx="36.1" cy="55.7" r="0.6"/>
	<ellipse class="st3" cx="39" cy="50.8" rx="0.6" ry="0.6"/>
	<ellipse class="st3" cx="36.1" cy="45.8" rx="0.6" ry="0.6"/>
</g>
<g id="flat-icon-56_2_">
	<path class="st2" d="M54.1,50.8l1.3-2.2c0.1-0.1,0.1-0.3,0-0.4C55.3,48,55.1,48,55,48h-2.5l-1.3-2.2c-0.1-0.2-0.6-0.2-0.7,0
		L49.2,48h-2.5c-0.1,0-0.3,0.1-0.3,0.2c-0.1,0.1-0.1,0.3,0,0.4l1.3,2.2L46.4,53c-0.1,0.1-0.1,0.3,0,0.4c0.1,0.1,0.2,0.2,0.3,0.2h2.5
		l1.3,2.2c0.1,0.1,0.2,0.2,0.3,0.2s0.3-0.1,0.3-0.2l1.3-2.2H55c0.1,0,0.3-0.1,0.3-0.2c0.1-0.1,0.1-0.3,0-0.4L54.1,50.8z M53.4,50.4
		h-1.8l0.9-1.6h1.8L53.4,50.4z M50.9,46.8l0.9,1.6L50.9,50l-0.9-1.6L50.9,46.8z M47.4,48.8h1.8l0.9,1.6l-1.8,0L47.4,48.8z
		 M48.3,51.2l1.8,0l-0.9,1.6h-1.8L48.3,51.2z M50.9,54.8l-0.9-1.6l0.9-1.6l0.9,1.6L50.9,54.8z M52.5,52.8l-0.9-1.6h1.8l0.9,1.6H52.5
		z"/>
	<circle class="st3" cx="48" cy="45.8" r="0.6"/>
	<ellipse class="st3" cx="45.1" cy="50.8" rx="0.6" ry="0.6"/>
	<ellipse class="st3" cx="48" cy="55.7" rx="0.6" ry="0.6"/>
	<circle class="st3" cx="53.7" cy="55.7" r="0.6"/>
	<ellipse class="st3" cx="56.6" cy="50.8" rx="0.6" ry="0.6"/>
	<ellipse class="st3" cx="53.7" cy="45.8" rx="0.6" ry="0.6"/>
</g>
</svg>
