<?xml version="1.0" encoding="utf-8"?>
<!-- Generator: Adobe Illustrator 22.0.0, SVG Export Plug-In . SVG Version: 6.00 Build 0)  -->
<svg version="1.1" id="XMLID_1_" xmlns="http://www.w3.org/2000/svg" xmlns:xlink="http://www.w3.org/1999/xlink" x="0px" y="0px"
	 viewBox="0 0 64 64" style="enable-background:new 0 0 64 64;" xml:space="preserve">
<style type="text/css">
	.st0{fill:#F3F3F3;}
	.st1{fill:#E1E1E1;}
	.st2{fill:#A4C4E7;}
	.st3{fill:#70A9DC;}
</style>
<path class="st0" d="M48.9,17c-0.7,0-1.4,0.1-2,0.2c-2.7-4.9-8-8.2-14-8.2s-11.2,3.3-14,8.2c-0.7-0.1-1.3-0.2-2-0.2
	c-6.6,0-12,5.4-12,12s5.4,12,12,12h32c6.6,0,12-5.4,12-12S55.5,17,48.9,17z"/>
<path class="st1" d="M48.9,17c-0.7,0-1.4,0.1-2,0.2c0,0,0,0,0-0.1c1.3,2.3,2.1,5,2.1,7.9c0,8.8-7.2,16-16,16h16c6.6,0,12-5.4,12-12
	S55.5,17,48.9,17z"/>
<g id="flat-icon-56">
	<path class="st2" d="M18.1,48.8l1-1.7c0.1-0.1,0.1-0.2,0-0.3s-0.2-0.2-0.3-0.2h-2l-1-1.7c-0.1-0.2-0.4-0.2-0.5,0l-1,1.7h-2
		c-0.1,0-0.2,0.1-0.3,0.2c-0.1,0.1-0.1,0.2,0,0.3l1,1.7l-1,1.7c-0.1,0.1-0.1,0.2,0,0.3c0.1,0.1,0.2,0.2,0.3,0.2h2l1,1.7
		c0.1,0.1,0.2,0.2,0.3,0.2c0.1,0,0.2-0.1,0.3-0.2l1-1.7h2c0.1,0,0.2-0.1,0.3-0.2s0.1-0.2,0-0.3L18.1,48.8z M17.5,48.5h-1.4l0.7-1.2
		h1.4L17.5,48.5z M15.6,45.7l0.7,1.2l-0.7,1.2l-0.7-1.2L15.6,45.7z M12.9,47.2h1.4l0.7,1.2l-1.4,0L12.9,47.2z M13.6,49.1l1.4,0
		l-0.7,1.2h-1.4L13.6,49.1z M15.6,51.9l-0.7-1.2l0.7-1.2l0.7,1.2L15.6,51.9z M16.8,50.3l-0.7-1.2h1.4l0.7,1.2H16.8z"/>
	<circle class="st3" cx="13.3" cy="44.9" r="0.5"/>
	<ellipse class="st3" cx="11.1" cy="48.8" rx="0.5" ry="0.5"/>
	<ellipse class="st3" cx="13.3" cy="52.6" rx="0.5" ry="0.5"/>
	<circle class="st3" cx="17.8" cy="52.6" r="0.5"/>
	<ellipse class="st3" cx="20" cy="48.8" rx="0.5" ry="0.5"/>
	<ellipse class="st3" cx="17.8" cy="44.9" rx="0.5" ry="0.5"/>
</g>
<g id="flat-icon-56_1_">
	<path class="st2" d="M40,48.8l1-1.7c0.1-0.1,0.1-0.2,0-0.3c-0.1-0.1-0.2-0.2-0.3-0.2h-2l-1-1.7c-0.1-0.2-0.4-0.2-0.5,0l-1,1.7h-2
		c-0.1,0-0.2,0.1-0.3,0.2c-0.1,0.1-0.1,0.2,0,0.3l1,1.7l-1,1.7c-0.1,0.1-0.1,0.2,0,0.3c0.1,0.1,0.2,0.2,0.3,0.2h2l1,1.7
		c0.1,0.1,0.2,0.2,0.3,0.2c0.1,0,0.2-0.1,0.3-0.2l1-1.7h2c0.1,0,0.2-0.1,0.3-0.2c0.1-0.1,0.1-0.2,0-0.3L40,48.8z M39.4,48.5H38
		l0.7-1.2h1.4L39.4,48.5z M37.5,45.7l0.7,1.2l-0.7,1.2l-0.7-1.2L37.5,45.7z M34.8,47.2h1.4l0.7,1.2l-1.4,0L34.8,47.2z M35.5,49.1
		l1.4,0l-0.7,1.2h-1.4L35.5,49.1z M37.5,51.9l-0.7-1.2l0.7-1.2l0.7,1.2L37.5,51.9z M38.7,50.3L38,49.1h1.4l0.7,1.2H38.7z"/>
	<circle class="st3" cx="35.2" cy="44.9" r="0.5"/>
	<ellipse class="st3" cx="33" cy="48.8" rx="0.5" ry="0.5"/>
	<ellipse class="st3" cx="35.2" cy="52.6" rx="0.5" ry="0.5"/>
	<circle class="st3" cx="39.7" cy="52.6" r="0.5"/>
	<ellipse class="st3" cx="41.9" cy="48.8" rx="0.5" ry="0.5"/>
	<ellipse class="st3" cx="39.7" cy="44.9" rx="0.5" ry="0.5"/>
</g>
<g id="flat-icon-56_2_">
	<path class="st2" d="M52.8,48.8l1-1.7c0.1-0.1,0.1-0.2,0-0.3c-0.1-0.1-0.2-0.2-0.3-0.2h-2l-1-1.7c-0.1-0.2-0.4-0.2-0.5,0l-1,1.7h-2
		c-0.1,0-0.2,0.1-0.3,0.2c-0.1,0.1-0.1,0.2,0,0.3l1,1.7l-1,1.7c-0.1,0.1-0.1,0.2,0,0.3c0.1,0.1,0.2,0.2,0.3,0.2h2l1,1.7
		c0.1,0.1,0.2,0.2,0.3,0.2s0.2-0.1,0.3-0.2l1-1.7h2c0.1,0,0.2-0.1,0.3-0.2c0.1-0.1,0.1-0.2,0-0.3L52.8,48.8z M52.3,48.5h-1.4
		l0.7-1.2H53L52.3,48.5z M50.3,45.7l0.7,1.2l-0.7,1.2l-0.7-1.2L50.3,45.7z M47.6,47.2h1.4l0.7,1.2l-1.4,0L47.6,47.2z M48.4,49.1
		l1.4,0l-0.7,1.2h-1.4L48.4,49.1z M50.3,51.9l-0.7-1.2l0.7-1.2l0.7,1.2L50.3,51.9z M51.6,50.3l-0.7-1.2h1.4l0.7,1.2H51.6z"/>
	<circle class="st3" cx="48.1" cy="44.9" r="0.5"/>
	<ellipse class="st3" cx="45.9" cy="48.8" rx="0.5" ry="0.5"/>
	<ellipse class="st3" cx="48.1" cy="52.6" rx="0.5" ry="0.5"/>
	<circle class="st3" cx="52.6" cy="52.6" r="0.5"/>
	<ellipse class="st3" cx="54.8" cy="48.8" rx="0.5" ry="0.5"/>
	<ellipse class="st3" cx="52.6" cy="44.9" rx="0.5" ry="0.5"/>
</g>
<g id="flat-icon-56_3_">
	<path class="st2" d="M29,56.4l1.1-2c0.1-0.1,0.1-0.2,0-0.4c-0.1-0.1-0.2-0.2-0.3-0.2h-2.3l-1.1-2c-0.1-0.2-0.5-0.2-0.6,0l-1.1,2
		h-2.3c-0.1,0-0.2,0.1-0.3,0.2c-0.1,0.1-0.1,0.2,0,0.4l1.1,2l-1.1,2c-0.1,0.1-0.1,0.2,0,0.4c0.1,0.1,0.2,0.2,0.3,0.2h2.3l1.1,2
		c0.1,0.1,0.2,0.2,0.3,0.2s0.2-0.1,0.3-0.2l1.1-2h2.3c0.1,0,0.2-0.1,0.3-0.2c0.1-0.1,0.1-0.2,0-0.4L29,56.4z M28.4,56h-1.6l0.8-1.4
		h1.6L28.4,56z M26.1,52.8l0.8,1.4l-0.8,1.4l-0.8-1.4L26.1,52.8z M23.1,54.6h1.6l0.8,1.4l-1.6,0L23.1,54.6z M23.9,56.7l1.6,0
		l-0.8,1.4h-1.6L23.9,56.7z M26.1,59.9l-0.8-1.4l0.8-1.4l0.8,1.4L26.1,59.9z M27.6,58.1l-0.8-1.4h1.6l0.8,1.4H27.6z"/>
	<circle class="st3" cx="23.6" cy="51.9" r="0.6"/>
	<ellipse class="st3" cx="21" cy="56.4" rx="0.6" ry="0.6"/>
	<ellipse class="st3" cx="23.6" cy="60.8" rx="0.6" ry="0.6"/>
	<circle class="st3" cx="28.7" cy="60.8" r="0.6"/>
	<ellipse class="st3" cx="31.2" cy="56.4" rx="0.6" ry="0.6"/>
	<ellipse class="st3" cx="28.7" cy="51.9" rx="0.6" ry="0.6"/>
</g>
</svg>
