<?xml version="1.0" encoding="utf-8"?>
<!-- Generator: Adobe Illustrator 22.0.0, SVG Export Plug-In . SVG Version: 6.00 Build 0)  -->
<svg version="1.1" id="XMLID_2_" xmlns="http://www.w3.org/2000/svg" xmlns:xlink="http://www.w3.org/1999/xlink" x="0px" y="0px"
	 viewBox="0 0 64 64" style="enable-background:new 0 0 64 64;" xml:space="preserve">
<style type="text/css">
	.st0{fill:#565656;}
</style>
<path class="st0" d="M20.7,29.1h24c1.1,0,2-0.9,2-2c0-1.1-0.9-2-2-2h-24c-1.1,0-2,0.9-2,2C18.7,28.3,19.6,29.1,20.7,29.1z"/>
<path class="st0" d="M14.4,38.9h33.7c0.9,0,1.7-0.9,1.7-2c0-1.1-0.8-2-1.7-2H14.4c-0.9,0-1.7,0.9-1.7,2C12.7,38,13.5,38.9,14.4,38.9
	z"/>
<circle class="st0" cx="14.8" cy="27.4" r="2"/>
<circle class="st0" cx="53.9" cy="36.9" r="2"/>
</svg>
