<?xml version="1.0" encoding="utf-8"?>
<!-- Generator: Adobe Illustrator 22.0.0, SVG Export Plug-In . SVG Version: 6.00 Build 0)  -->
<svg version="1.1" id="XMLID_1_" xmlns="http://www.w3.org/2000/svg" xmlns:xlink="http://www.w3.org/1999/xlink" x="0px" y="0px"
	 viewBox="0 0 64 64" style="enable-background:new 0 0 64 64;" xml:space="preserve">
<style type="text/css">
	.st0{fill:#F3F3F3;}
	.st1{fill:#E1E1E1;}
	.st2{fill:#A4C4E7;}
	.st3{fill:#70A9DC;}
</style>
<g>
	<path class="st0" d="M48.9,17c-0.7,0-1.4,0.1-2,0.2c-2.7-4.9-8-8.2-14-8.2s-11.2,3.3-14,8.2c-0.7-0.1-1.3-0.2-2-0.2
		c-6.6,0-12,5.4-12,12s5.4,12,12,12h32c6.6,0,12-5.4,12-12S55.5,17,48.9,17z"/>
	<path class="st1" d="M48.9,17c-0.7,0-1.4,0.1-2,0.2c0,0,0,0,0-0.1c1.3,2.3,2.1,5,2.1,7.9c0,8.8-7.2,16-16,16h16c6.6,0,12-5.4,12-12
		S55.5,17,48.9,17z"/>
</g>
<g>
	<g id="flat-icon-56">
		<path class="st2" d="M27.5,50.8l1.3-2.2c0.1-0.1,0.1-0.3,0-0.4S28.5,48,28.4,48h-2.5l-1.3-2.2c-0.1-0.2-0.6-0.2-0.7,0L22.6,48
			h-2.5c-0.1,0-0.3,0.1-0.3,0.2s-0.1,0.3,0,0.4l1.3,2.2L19.7,53c-0.1,0.1-0.1,0.3,0,0.4c0.1,0.1,0.2,0.2,0.3,0.2h2.5l1.3,2.2
			c0.1,0.1,0.2,0.2,0.3,0.2c0.1,0,0.3-0.1,0.3-0.2l1.3-2.2h2.5c0.1,0,0.3-0.1,0.3-0.2c0.1-0.1,0.1-0.3,0-0.4L27.5,50.8z M26.8,50.4
			h-1.8l0.9-1.6h1.8L26.8,50.4z M24.2,46.8l0.9,1.6L24.2,50l-0.9-1.6L24.2,46.8z M20.8,48.8h1.8l0.9,1.6l-1.8,0L20.8,48.8z
			 M21.7,51.2l1.8,0l-0.9,1.6h-1.8L21.7,51.2z M24.2,54.8l-0.9-1.6l0.9-1.6l0.9,1.6L24.2,54.8z M25.8,52.8l-0.9-1.6h1.8l0.9,1.6
			H25.8z"/>
		<circle class="st3" cx="21.4" cy="45.8" r="0.6"/>
		<ellipse class="st3" cx="18.5" cy="50.8" rx="0.6" ry="0.6"/>
		<ellipse class="st3" cx="21.3" cy="55.7" rx="0.6" ry="0.6"/>
		<circle class="st3" cx="27.1" cy="55.7" r="0.6"/>
		<ellipse class="st3" cx="30" cy="50.8" rx="0.6" ry="0.6"/>
		<ellipse class="st3" cx="27.1" cy="45.8" rx="0.6" ry="0.6"/>
	</g>
	<g id="flat-icon-56_1_">
		<path class="st2" d="M44.9,50.8l1.3-2.2c0.1-0.1,0.1-0.3,0-0.4C46.1,48,46,48,45.8,48h-2.5L42,45.8c-0.1-0.2-0.6-0.2-0.7,0
			L40.1,48h-2.5c-0.1,0-0.3,0.1-0.3,0.2c-0.1,0.1-0.1,0.3,0,0.4l1.3,2.2L37.2,53c-0.1,0.1-0.1,0.3,0,0.4c0.1,0.1,0.2,0.2,0.3,0.2
			h2.5l1.3,2.2c0.1,0.1,0.2,0.2,0.3,0.2c0.1,0,0.3-0.1,0.3-0.2l1.3-2.2h2.5c0.1,0,0.3-0.1,0.3-0.2c0.1-0.1,0.1-0.3,0-0.4L44.9,50.8z
			 M44.2,50.4h-1.8l0.9-1.6h1.8L44.2,50.4z M41.7,46.8l0.9,1.6L41.7,50l-0.9-1.6L41.7,46.8z M38.2,48.8h1.8l0.9,1.6l-1.8,0
			L38.2,48.8z M39.1,51.2l1.8,0l-0.9,1.6h-1.8L39.1,51.2z M41.7,54.8l-0.9-1.6l0.9-1.6l0.9,1.6L41.7,54.8z M43.3,52.8l-0.9-1.6h1.8
			l0.9,1.6H43.3z"/>
		<circle class="st3" cx="38.8" cy="45.8" r="0.6"/>
		<ellipse class="st3" cx="35.9" cy="50.8" rx="0.6" ry="0.6"/>
		<ellipse class="st3" cx="38.8" cy="55.7" rx="0.6" ry="0.6"/>
		<circle class="st3" cx="44.5" cy="55.7" r="0.6"/>
		<ellipse class="st3" cx="47.4" cy="50.8" rx="0.6" ry="0.6"/>
		<ellipse class="st3" cx="44.6" cy="45.8" rx="0.6" ry="0.6"/>
	</g>
</g>
</svg>
