<?xml version="1.0" encoding="utf-8"?>
<!-- Generator: Adobe Illustrator 22.0.0, SVG Export Plug-In . SVG Version: 6.00 Build 0)  -->
<svg version="1.1" id="XMLID_2_" xmlns="http://www.w3.org/2000/svg" xmlns:xlink="http://www.w3.org/1999/xlink" x="0px" y="0px"
	 viewBox="0 0 64 64" style="enable-background:new 0 0 64 64;" xml:space="preserve">
<style type="text/css">
	.st0{fill:#DD9E5F;}
</style>
<g id="flat-icon-48">
	<path class="st0" d="M52.3,18.7c-4.4,0-8,3.6-8,8c0,1.1,0.9,2,2,2s2-0.9,2-2c0-2.2,1.8-4,4-4s4,1.8,4,4s-1.8,4-4,4H6.5
		c-1.1,0-2,0.9-2,2c0,1.1,0.9,2,2,2h45.8c4.4,0,8-3.6,8-8S56.7,18.7,52.3,18.7z"/>
	<path class="st0" d="M6.3,26.7h26c4.4,0,8-3.6,8-8s-3.6-8-8-8s-8,3.6-8,8c0,1.1,0.9,2,2,2s2-0.9,2-2c0-2.2,1.8-4,4-4s4,1.8,4,4
		s-1.8,4-4,4h-26c-1.1,0-2,0.9-2,2S5.2,26.7,6.3,26.7z"/>
	<path class="st0" d="M32.3,38.7h-26c-1.1,0-2,0.9-2,2s0.9,2,2,2h26c2.2,0,4,1.8,4,4s-1.8,4-4,4s-4-1.8-4-4c0-1.1-0.9-2-2-2
		s-2,0.9-2,2c0,4.4,3.6,8,8,8s8-3.6,8-8S36.7,38.7,32.3,38.7z"/>
</g>
<circle class="st0" cx="48.4" cy="11.4" r="2.3"/>
<circle class="st0" cx="39.1" cy="8.4" r="2.3"/>
<circle class="st0" cx="43" cy="20.3" r="2.3"/>
<circle class="st0" cx="42" cy="41" r="2.3"/>
<circle class="st0" cx="53.7" cy="44.4" r="2.3"/>
<circle class="st0" cx="44.8" cy="50.7" r="2.3"/>
<circle class="st0" cx="53" cy="54" r="2.3"/>
<path class="st0" d="M18.2,19.2H6.4c-1.1,0-2.1-0.9-2.1-2.1v0C4.3,16,5.2,15,6.4,15h11.8c1.1,0,2.1,0.9,2.1,2.1v0
	C20.3,18.2,19.3,19.2,18.2,19.2z"/>
<path class="st0" d="M18.2,50.8H6.4c-1.1,0-2.1-0.9-2.1-2.1v0c0-1.1,0.9-2.1,2.1-2.1h11.8c1.1,0,2.1,0.9,2.1,2.1v0
	C20.3,49.9,19.3,50.8,18.2,50.8z"/>
</svg>
