<?xml version="1.0" encoding="utf-8"?>
<!-- Generator: Adobe Illustrator 22.0.0, SVG Export Plug-In . SVG Version: 6.00 Build 0)  -->
<svg version="1.1" id="XMLID_1_" xmlns="http://www.w3.org/2000/svg" xmlns:xlink="http://www.w3.org/1999/xlink" x="0px" y="0px"
	 viewBox="0 0 64 64" style="enable-background:new 0 0 64 64;" xml:space="preserve">
<style type="text/css">
	.st0{fill:#F3F3F3;}
	.st1{fill:#E1E1E1;}
	.st2{fill:#A4C4E7;}
</style>
<g id="flat-icon-60">
	<g>
		<path class="st0" d="M48.9,17c-0.7,0-1.4,0.1-2,0.2c-2.7-4.9-8-8.2-14-8.2s-11.2,3.3-14,8.2c-0.7-0.1-1.3-0.2-2-0.2
			c-6.6,0-12,5.4-12,12s5.4,12,12,12h32c6.6,0,12-5.4,12-12S55.5,17,48.9,17z"/>
	</g>
	<g>
		<path class="st1" d="M48.9,17c-0.7,0-1.4,0.1-2,0.2c0,0,0,0,0-0.1c1.3,2.3,2.1,5,2.1,7.9c0,8.8-7.2,16-16,16h16
			c6.6,0,12-5.4,12-12S55.5,17,48.9,17z"/>
	</g>
	<g>
		<g id="Layer_1_7_">
			<g>
				<path class="st2" d="M32.9,47.3c-1.7,1.7-4,3.4-4,5.7c0,5.3,8,5.3,8,0C36.9,50.7,34.6,49.1,32.9,47.3z"/>
			</g>
		</g>
		<g id="Layer_2_7_">
		</g>
		<g id="Layer_3_7_">
		</g>
	</g>
</g>
</svg>
