<?xml version="1.0" encoding="utf-8"?>
<!-- Generator: Adobe Illustrator 19.2.1, SVG Export Plug-In . SVG Version: 6.00 Build 0)  -->
<svg version="1.1" id="XMLID_2_" xmlns="http://www.w3.org/2000/svg" xmlns:xlink="http://www.w3.org/1999/xlink" x="0px" y="0px"
	 viewBox="0 0 64 64" enable-background="new 0 0 64 64" xml:space="preserve">
<g id="flat-icon-63">
	<g>
		<path fill="#F3F3F3" d="M48.6715,12.6739c-0.6985,0-1.3789,0.0723-2.0444,0.1868c-2.7397-4.8824-7.9585-8.1868-13.9556-8.1868
			S21.4557,7.9783,18.716,12.8607c-0.6655-0.1145-1.3459-0.1868-2.0444-0.1868c-6.6274,0-12,5.3726-12,12s5.3726,12,12,12h32
			c6.6274,0,12-5.3726,12-12S55.299,12.6739,48.6715,12.6739z"/>
	</g>
	<g>
		<path fill="#E1E1E1" d="M48.6715,12.6739c-0.6982,0-1.3789,0.0723-2.0444,0.1868c-0.0122-0.0221-0.0288-0.0415-0.0415-0.0636
			c1.3213,2.3275,2.0859,5.0125,2.0859,7.8801c0,8.8347-7.1621,15.9967-15.9966,15.9967h15.9966c6.6274,0,12-5.3726,12-12
			S55.299,12.6739,48.6715,12.6739z"/>
	</g>
	<g>
		<circle fill="#A4C4E7" cx="51.6715" cy="47.6739" r="1"/>
		<path fill="#A4C4E7" d="M51.6715,40.6739c-0.5522,0-1,0.4476-1,1v2c0,0.5522,0.4478,1,1,1s1-0.4478,1-1v-2
			C52.6715,41.1216,52.2238,40.6739,51.6715,40.6739z"/>
		<path fill="#A4C4E7" d="M51.6715,50.6739c-0.5522,0-1,0.4476-1,0.9999v2.0001c0,0.5522,0.4478,1,1,1s1-0.4478,1-1v-2.0001
			C52.6715,51.1216,52.2238,50.6739,51.6715,50.6739z"/>
		<path fill="#A4C4E7" d="M48.7091,44.8089l-1.7319-1c-0.4785-0.2761-1.0898-0.1123-1.3662,0.366s-0.1123,1.0898,0.3662,1.366
			l1.7319,1c0.478,0.2761,1.0898,0.1123,1.3657-0.366C49.3512,45.6966,49.1872,45.0851,48.7091,44.8089z"/>
		<path fill="#A4C4E7" d="M57.3693,49.8091l-1.7319-1c-0.4785-0.2761-1.0898-0.1123-1.3662,0.366
			c-0.2759,0.4784-0.1123,1.09,0.3662,1.3661l1.7319,1c0.4785,0.2761,1.0898,0.1123,1.3662-0.3661
			C58.0114,50.6968,57.8478,50.0852,57.3693,49.8091z"/>
		<path fill="#A4C4E7" d="M47.7057,48.8091l-1.7314,1c-0.4785,0.2761-0.6426,0.8877-0.3662,1.366
			c0.2764,0.4784,0.8877,0.6422,1.3662,0.3661l1.7314-1c0.4785-0.2761,0.6426-0.8877,0.3662-1.366
			C48.7956,48.6968,48.1842,48.5329,47.7057,48.8091z"/>
		<path fill="#A4C4E7" d="M55.6344,46.5415l1.7319-1c0.478-0.2761,0.6421-0.8877,0.3662-1.366
			c-0.2764-0.4783-0.8882-0.6421-1.3662-0.366l-1.7319,1c-0.4785,0.2761-0.6421,0.8877-0.3662,1.366
			C54.5446,46.6538,55.1559,46.8177,55.6344,46.5415z"/>
	</g>
	<g>
		<circle fill="#A4C4E7" cx="35.6715" cy="53.6739" r="1"/>
		<path fill="#A4C4E7" d="M35.6715,46.6739c-0.5522,0-1,0.4476-1,1v2c0,0.5522,0.4478,1,1,1s1-0.4478,1-1v-2
			C36.6715,47.1216,36.2238,46.6739,35.6715,46.6739z"/>
		<path fill="#A4C4E7" d="M35.6715,56.6739c-0.5522,0-1,0.4476-1,0.9999v2.0001c0,0.5522,0.4478,1,1,1s1-0.4478,1-1v-2.0001
			C36.6715,57.1216,36.2238,56.6739,35.6715,56.6739z"/>
		<path fill="#A4C4E7" d="M32.7091,50.8089l-1.7319-1c-0.4785-0.2761-1.0898-0.1123-1.3662,0.366s-0.1123,1.0898,0.3662,1.366
			l1.7319,1c0.478,0.2761,1.0898,0.1123,1.3657-0.366C33.3512,51.6966,33.1872,51.0851,32.7091,50.8089z"/>
		<path fill="#A4C4E7" d="M41.3693,55.8091l-1.7319-1c-0.4785-0.2761-1.0898-0.1123-1.3662,0.366
			c-0.2759,0.4784-0.1123,1.09,0.3662,1.3661l1.7319,1c0.4785,0.2761,1.0898,0.1123,1.3662-0.3661
			C42.0114,56.6968,41.8478,56.0852,41.3693,55.8091z"/>
		<path fill="#A4C4E7" d="M31.7057,54.8091l-1.7314,1c-0.4785,0.2761-0.6426,0.8877-0.3662,1.366
			c0.2764,0.4784,0.8877,0.6422,1.3662,0.3661l1.7314-1c0.4785-0.2761,0.6426-0.8877,0.3662-1.366
			C32.7956,54.6968,32.1842,54.5329,31.7057,54.8091z"/>
		<path fill="#A4C4E7" d="M39.6344,52.5415l1.7319-1c0.478-0.2761,0.6421-0.8877,0.3662-1.366
			c-0.2764-0.4783-0.8882-0.6421-1.3662-0.366l-1.7319,1c-0.4785,0.2761-0.6421,0.8877-0.3662,1.366
			C38.5446,52.6538,39.1559,52.8177,39.6344,52.5415z"/>
	</g>
	<g>
		<path fill="#A4C4E7" d="M20.6715,29.3932c-5.684,5.684-8,7.15-8,11.314c0,4.418,3.582,8,8,8s8-3.582,8-8
			C28.6715,36.5472,26.3675,35.0892,20.6715,29.3932z"/>
	</g>
</g>
</svg>
