<?xml version="1.0" encoding="utf-8"?>
<!-- Generator: Adobe Illustrator 19.2.1, SVG Export Plug-In . SVG Version: 6.00 Build 0)  -->
<svg version="1.1" id="XMLID_2_" xmlns="http://www.w3.org/2000/svg" xmlns:xlink="http://www.w3.org/1999/xlink" x="0px" y="0px"
	 viewBox="0 0 64 64" enable-background="new 0 0 64 64" xml:space="preserve">
<g id="flat-icon-69">
	<g>
		<g>
			<path fill="#FCF1CE" d="M54.6724,34.5519l3.0121-1.8073c0.3083-0.185,0.3083-0.6317,0-0.8167l-3.0118-1.8072
				c-1.4902-0.8942-1.8848-2.8783-0.8501-4.2747l2.091-2.8219c0.214-0.2889,0.0431-0.7016-0.3125-0.7545l-3.4742-0.517
				c-1.719-0.2558-2.8429-1.9378-2.4213-3.6238l0.8519-3.4073c0.0872-0.3488-0.2287-0.6647-0.5775-0.5775l-3.4078,0.8519
				c-1.6859,0.4214-3.3678-0.7024-3.6235-2.4212l-0.517-3.4742c-0.0529-0.3556-0.4657-0.5266-0.7545-0.3125l-2.8223,2.0911
				c-1.3963,1.0346-3.3803,0.6399-4.2744-0.8503l-1.807-3.0118c-0.185-0.3083-0.6317-0.3083-0.8167,0l-1.807,3.0118
				c-0.8941,1.4902-2.8781,1.8848-4.2744,0.8503L23.053,8.7879c-0.2889-0.214-0.7016-0.043-0.7545,0.3125l-0.517,3.4742
				c-0.2558,1.7188-1.9377,2.8426-3.6235,2.4212l-3.4078-0.8519c-0.3488-0.0872-0.6647,0.2287-0.5775,0.5775l0.8519,3.4075
				c0.4215,1.6859-0.7023,3.3679-2.4212,3.6236l-3.4744,0.517c-0.3556,0.0529-0.5266,0.4657-0.3125,0.7545l2.091,2.8219
				c1.0347,1.3963,0.6401,3.3805-0.8501,4.2747l-3.0118,1.8072c-0.3083,0.185-0.3083,0.6317,0,0.8167l3.0121,1.8073
				c1.4901,0.8941,1.8847,2.8781,0.8501,4.2743l-2.0912,2.8221c-0.214,0.2888-0.0431,0.7016,0.3125,0.7545l3.4744,0.517
				c1.7189,0.2558,2.8427,1.9377,2.4212,3.6236l-0.8519,3.4076c-0.0872,0.3488,0.2287,0.6647,0.5775,0.5775l3.4075-0.8519
				c1.686-0.4215,3.368,0.7024,3.6238,2.4213l0.517,3.4742c0.0529,0.3556,0.4657,0.5266,0.7545,0.3125l2.8221-2.0911
				c1.3962-1.0346,3.3803-0.64,4.2743,0.8502l1.8072,3.0121c0.185,0.3083,0.6317,0.3083,0.8167,0l1.8072-3.012
				c0.8941-1.4902,2.8782-1.8848,4.2745-0.8502l2.822,2.0911c0.2888,0.214,0.7016,0.0431,0.7545-0.3125l0.517-3.4742
				c0.2558-1.7189,1.9378-2.8428,3.6238-2.4213l3.4075,0.8519c0.3488,0.0872,0.6647-0.2287,0.5775-0.5775l-0.8519-3.4076
				c-0.4215-1.6859,0.7024-3.3679,2.4212-3.6236l3.4744-0.517c0.3556-0.0529,0.5266-0.4657,0.3125-0.7545l-2.0912-2.8221
				C52.7877,37.4299,53.1823,35.4459,54.6724,34.5519z"/>
		</g>
	</g>
	<g>
		<circle fill="#F9DB7B" cx="32.3651" cy="32.3362" r="16"/>
	</g>
</g>
</svg>
