<?xml version="1.0" encoding="utf-8"?>
<!-- Generator: Adobe Illustrator 22.0.0, SVG Export Plug-In . SVG Version: 6.00 Build 0)  -->
<svg version="1.1" id="XMLID_1_" xmlns="http://www.w3.org/2000/svg" xmlns:xlink="http://www.w3.org/1999/xlink" x="0px" y="0px"
	 viewBox="0 0 64 64" style="enable-background:new 0 0 64 64;" xml:space="preserve">
<style type="text/css">
	.st0{fill:#F3F3F3;}
	.st1{fill:#E1E1E1;}
	.st2{fill:#A4C4E7;}
	.st3{fill:#70A9DC;}
</style>
<path class="st0" d="M48.9,17c-0.7,0-1.4,0.1-2,0.2c-2.7-4.9-8-8.2-14-8.2s-11.2,3.3-14,8.2c-0.7-0.1-1.3-0.2-2-0.2
	c-6.6,0-12,5.4-12,12s5.4,12,12,12h32c6.6,0,12-5.4,12-12S55.5,17,48.9,17z"/>
<path class="st1" d="M48.9,17c-0.7,0-1.4,0.1-2,0.2c0,0,0,0,0-0.1c1.3,2.3,2.1,5,2.1,7.9c0,8.8-7.2,16-16,16h16c6.6,0,12-5.4,12-12
	S55.5,17,48.9,17z"/>
<g>
	<g id="flat-icon-56">
		<path class="st2" d="M15.5,48.8l1-1.7c0.1-0.1,0.1-0.2,0-0.3s-0.2-0.2-0.3-0.2h-2l-1-1.7c-0.1-0.2-0.4-0.2-0.5,0l-1,1.7h-2
			c-0.1,0-0.2,0.1-0.3,0.2c-0.1,0.1-0.1,0.2,0,0.3l1,1.7l-1,1.7c-0.1,0.1-0.1,0.2,0,0.3C9.5,50.9,9.6,51,9.8,51h2l1,1.7
			c0.1,0.1,0.2,0.2,0.3,0.2s0.2-0.1,0.3-0.2l1-1.7h2c0.1,0,0.2-0.1,0.3-0.2s0.1-0.2,0-0.3L15.5,48.8z M15,48.5h-1.4l0.7-1.2h1.4
			L15,48.5z M13,45.7l0.7,1.2L13,48.2l-0.7-1.2L13,45.7z M10.3,47.2h1.4l0.7,1.2l-1.4,0L10.3,47.2z M11,49.1l1.4,0l-0.7,1.2h-1.4
			L11,49.1z M13,51.9l-0.7-1.2l0.7-1.2l0.7,1.2L13,51.9z M14.2,50.3l-0.7-1.2H15l0.7,1.2H14.2z"/>
		<circle class="st3" cx="10.7" cy="44.9" r="0.5"/>
		<ellipse class="st3" cx="8.5" cy="48.8" rx="0.5" ry="0.5"/>
		<ellipse class="st3" cx="10.7" cy="52.6" rx="0.5" ry="0.5"/>
		<circle class="st3" cx="15.2" cy="52.6" r="0.5"/>
		<ellipse class="st3" cx="17.5" cy="48.8" rx="0.5" ry="0.5"/>
		<ellipse class="st3" cx="15.2" cy="44.9" rx="0.5" ry="0.5"/>
	</g>
	<g id="flat-icon-56_1_">
		<path class="st2" d="M36.3,48.8l1-1.7c0.1-0.1,0.1-0.2,0-0.3c-0.1-0.1-0.2-0.2-0.3-0.2h-2l-1-1.7c-0.1-0.2-0.4-0.2-0.5,0l-1,1.7
			h-2c-0.1,0-0.2,0.1-0.3,0.2s-0.1,0.2,0,0.3l1,1.7l-1,1.7c-0.1,0.1-0.1,0.2,0,0.3s0.2,0.2,0.3,0.2h2l1,1.7c0.1,0.1,0.2,0.2,0.3,0.2
			c0.1,0,0.2-0.1,0.3-0.2l1-1.7h2c0.1,0,0.2-0.1,0.3-0.2s0.1-0.2,0-0.3L36.3,48.8z M35.7,48.5h-1.4l0.7-1.2h1.4L35.7,48.5z
			 M33.7,45.7l0.7,1.2l-0.7,1.2L33,46.9L33.7,45.7z M31.1,47.2h1.4l0.7,1.2l-1.4,0L31.1,47.2z M31.8,49.1l1.4,0l-0.7,1.2h-1.4
			L31.8,49.1z M33.7,51.9L33,50.6l0.7-1.2l0.7,1.2L33.7,51.9z M35,50.3l-0.7-1.2h1.4l0.7,1.2H35z"/>
		<circle class="st3" cx="31.5" cy="44.9" r="0.5"/>
		<ellipse class="st3" cx="29.3" cy="48.8" rx="0.5" ry="0.5"/>
		<ellipse class="st3" cx="31.5" cy="52.6" rx="0.5" ry="0.5"/>
		<circle class="st3" cx="36" cy="52.6" r="0.5"/>
		<ellipse class="st3" cx="38.2" cy="48.8" rx="0.5" ry="0.5"/>
		<ellipse class="st3" cx="36" cy="44.9" rx="0.5" ry="0.5"/>
	</g>
	<g id="flat-icon-56_2_">
		<path class="st2" d="M55.3,48.8l1-1.7c0.1-0.1,0.1-0.2,0-0.3s-0.2-0.2-0.3-0.2h-2l-1-1.7c-0.1-0.2-0.4-0.2-0.5,0l-1,1.7h-2
			c-0.1,0-0.2,0.1-0.3,0.2c-0.1,0.1-0.1,0.2,0,0.3l1,1.7l-1,1.7c-0.1,0.1-0.1,0.2,0,0.3c0.1,0.1,0.2,0.2,0.3,0.2h2l1,1.7
			c0.1,0.1,0.2,0.2,0.3,0.2c0.1,0,0.2-0.1,0.3-0.2l1-1.7h2c0.1,0,0.2-0.1,0.3-0.2c0.1-0.1,0.1-0.2,0-0.3L55.3,48.8z M54.8,48.5h-1.4
			l0.7-1.2h1.4L54.8,48.5z M52.8,45.7l0.7,1.2l-0.7,1.2l-0.7-1.2L52.8,45.7z M50.1,47.2h1.4l0.7,1.2l-1.4,0L50.1,47.2z M50.8,49.1
			l1.4,0l-0.7,1.2h-1.4L50.8,49.1z M52.8,51.9l-0.7-1.2l0.7-1.2l0.7,1.2L52.8,51.9z M54.1,50.3l-0.7-1.2h1.4l0.7,1.2H54.1z"/>
		<circle class="st3" cx="50.6" cy="44.9" r="0.5"/>
		<ellipse class="st3" cx="48.3" cy="48.8" rx="0.5" ry="0.5"/>
		<ellipse class="st3" cx="50.6" cy="52.6" rx="0.5" ry="0.5"/>
		<circle class="st3" cx="55.1" cy="52.6" r="0.5"/>
		<ellipse class="st3" cx="57.3" cy="48.8" rx="0.5" ry="0.5"/>
		<ellipse class="st3" cx="55.1" cy="44.9" rx="0.5" ry="0.5"/>
	</g>
	<g id="flat-icon-56_3_">
		<path class="st2" d="M25.9,56.4l1.1-2c0.1-0.1,0.1-0.2,0-0.4c-0.1-0.1-0.2-0.2-0.3-0.2h-2.3l-1.1-2c-0.1-0.2-0.5-0.2-0.6,0l-1.1,2
			h-2.3c-0.1,0-0.2,0.1-0.3,0.2c-0.1,0.1-0.1,0.2,0,0.4l1.1,2l-1.1,2c-0.1,0.1-0.1,0.2,0,0.4c0.1,0.1,0.2,0.2,0.3,0.2h2.3l1.1,2
			c0.1,0.1,0.2,0.2,0.3,0.2s0.2-0.1,0.3-0.2l1.1-2h2.3c0.1,0,0.2-0.1,0.3-0.2c0.1-0.1,0.1-0.2,0-0.4L25.9,56.4z M25.2,56h-1.6
			l0.8-1.4h1.6L25.2,56z M23,52.8l0.8,1.4L23,55.7l-0.8-1.4L23,52.8z M19.9,54.6h1.6l0.8,1.4l-1.6,0L19.9,54.6z M20.7,56.7l1.6,0
			l-0.8,1.4h-1.6L20.7,56.7z M23,59.9l-0.8-1.4l0.8-1.4l0.8,1.4L23,59.9z M24.4,58.1l-0.8-1.4h1.6l0.8,1.4H24.4z"/>
		<circle class="st3" cx="20.4" cy="51.9" r="0.6"/>
		<ellipse class="st3" cx="17.9" cy="56.4" rx="0.6" ry="0.6"/>
		<ellipse class="st3" cx="20.4" cy="60.8" rx="0.6" ry="0.6"/>
		<circle class="st3" cx="25.5" cy="60.8" r="0.6"/>
		<ellipse class="st3" cx="28.1" cy="56.4" rx="0.6" ry="0.6"/>
		<ellipse class="st3" cx="25.5" cy="51.9" rx="0.6" ry="0.6"/>
	</g>
	<g id="flat-icon-56_4_">
		<path class="st2" d="M46.7,56.4l1.1-2c0.1-0.1,0.1-0.2,0-0.4c-0.1-0.1-0.2-0.2-0.3-0.2h-2.3l-1.1-2c-0.1-0.2-0.5-0.2-0.6,0l-1.1,2
			h-2.3c-0.1,0-0.2,0.1-0.3,0.2c-0.1,0.1-0.1,0.2,0,0.4l1.1,2l-1.1,2c-0.1,0.1-0.1,0.2,0,0.4c0.1,0.1,0.2,0.2,0.3,0.2h2.3l1.1,2
			c0.1,0.1,0.2,0.2,0.3,0.2c0.1,0,0.2-0.1,0.3-0.2l1.1-2h2.3c0.1,0,0.2-0.1,0.3-0.2c0.1-0.1,0.1-0.2,0-0.4L46.7,56.4z M46.1,56h-1.6
			l0.8-1.4h1.6L46.1,56z M43.9,52.8l0.8,1.4l-0.8,1.4L43,54.2L43.9,52.8z M40.8,54.6h1.6l0.8,1.4l-1.6,0L40.8,54.6z M41.6,56.7
			l1.6,0l-0.8,1.4h-1.6L41.6,56.7z M43.9,59.9L43,58.5l0.8-1.4l0.8,1.4L43.9,59.9z M45.3,58.1l-0.8-1.4h1.6l0.8,1.4H45.3z"/>
		<circle class="st3" cx="41.3" cy="51.9" r="0.6"/>
		<ellipse class="st3" cx="38.8" cy="56.4" rx="0.6" ry="0.6"/>
		<ellipse class="st3" cx="41.3" cy="60.8" rx="0.6" ry="0.6"/>
		<circle class="st3" cx="46.4" cy="60.8" r="0.6"/>
		<ellipse class="st3" cx="49" cy="56.4" rx="0.6" ry="0.6"/>
		<ellipse class="st3" cx="46.4" cy="51.9" rx="0.6" ry="0.6"/>
	</g>
</g>
</svg>
