<?xml version="1.0" encoding="utf-8"?>
<!-- Generator: Adobe Illustrator 19.2.1, SVG Export Plug-In . SVG Version: 6.00 Build 0)  -->
<svg version="1.1" id="XMLID_1_" xmlns="http://www.w3.org/2000/svg" xmlns:xlink="http://www.w3.org/1999/xlink" x="0px" y="0px"
	 viewBox="0 0 64 64" enable-background="new 0 0 64 64" xml:space="preserve">
<g id="flat-icon-62">
	<g>
		<path fill="#F3F3F3" d="M48.6671,16.9551c-0.6985,0-1.3789,0.0723-2.0444,0.1868c-2.7397-4.8824-7.9585-8.1868-13.9556-8.1868
			s-11.2158,3.3043-13.9556,8.1868c-0.6655-0.1145-1.3459-0.1868-2.0444-0.1868c-6.6274,0-12,5.3726-12,12s5.3726,12,12,12h32
			c6.6274,0,12-5.3726,12-12S55.2946,16.9551,48.6671,16.9551z"/>
	</g>
	<g>
		<path fill="#E1E1E1" d="M48.6671,16.9551c-0.6982,0-1.3789,0.0723-2.0444,0.1868c-0.0122-0.0221-0.0288-0.0415-0.0415-0.0636
			c1.3213,2.3275,2.0859,5.0125,2.0859,7.8801c0,8.8347-7.1621,15.9967-15.9966,15.9967h15.9966c6.6274,0,12-5.3726,12-12
			S55.2946,16.9551,48.6671,16.9551z"/>
	</g>
	<g>
		<g id="Layer_1_15_">
			<g>
				<path fill="#A4C4E7" d="M18.6671,46.9551c-1.726,1.726-4,3.354-4,5.656c0,5.286,8,5.292,8,0
					C22.6671,50.3091,20.3931,48.6811,18.6671,46.9551z"/>
				<path fill="#A4C4E7" d="M50.6688,46.9551c-1.726,1.726-4,3.354-4,5.656c0,5.286,8,5.292,8,0
					C54.6688,50.3091,52.3948,48.6811,50.6688,46.9551z"/>
				<polygon fill="#FCD95F" points="34.6672,21.0391 22.6672,40.9551 30.6672,40.9551 30.6672,56.9551 42.6672,36.9551 
					34.6672,36.9551 				"/>
			</g>
		</g>
		<g id="Layer_2_9_">
		</g>
		<g id="Layer_3_9_">
		</g>
	</g>
</g>
</svg>
