<?xml version="1.0" encoding="utf-8"?>
<!-- Generator: Adobe Illustrator 22.0.0, SVG Export Plug-In . SVG Version: 6.00 Build 0)  -->
<svg version="1.1" id="图层_1" xmlns="http://www.w3.org/2000/svg" xmlns:xlink="http://www.w3.org/1999/xlink" x="0px" y="0px"
	 viewBox="0 0 200 200" style="enable-background:new 0 0 200 200;" xml:space="preserve">
<style type="text/css">
	.st0{fill:#B6CEEB;}
</style>
<path class="st0" d="M99.1,75.7c-52.2,0-94.6-14.1-94.6-37.9C4.5,14.1,46.8,0,99.1,0s94.6,14.1,94.6,37.8
	C193.7,61.6,151.3,75.7,99.1,75.7z M99.1,56.8c41.8,0,75.7-11.3,75.7-18.9s-33.9-18.9-75.7-18.9S23.4,30.2,23.4,37.9
	S57.3,56.8,99.1,56.8z M79.6,112.9c-5.2-0.2-9.3-4.5-9.2-9.7c0.2-5.2,4.5-9.3,9.7-9.2c0.2,0,0.3,0,0.5,0c34.5,2,61.6-0.9,81.3-8.2
	c4.9-1.8,10.3,0.7,12.1,5.6c1.8,4.8-0.7,10.2-5.5,12.1C146.1,111.9,116.5,115,79.6,112.9L79.6,112.9z M49.1,151
	c-5-1.5-7.9-6.7-6.4-11.7c1.5-5,6.7-7.9,11.7-6.4c21.8,6.4,45.6,7.4,71.4,2.9c5.1-0.8,9.9,2.6,10.8,7.7c0.9,5.1-2.5,10-7.6,10.9
	C100.5,159.4,73.8,158.3,49.1,151C49.1,151,49.1,151,49.1,151z M86.8,198.3c-5-1.6-7.7-6.9-6.2-11.9c1.6-5,6.9-7.7,11.9-6.2l0,0
	c3.7,1.2,8.2,1.2,13.9-0.2c5.1-1.2,10.2,1.9,11.4,7c0,0,0,0,0,0c1.2,5.1-1.9,10.2-7,11.4c0,0,0,0,0,0
	C102,200.5,93.9,200.5,86.8,198.3z"/>
</svg>
