<?xml version="1.0" encoding="utf-8"?>
<!-- Generator: Adobe Illustrator 22.0.0, SVG Export Plug-In . SVG Version: 6.00 Build 0)  -->
<svg version="1.1" id="XMLID_2_" xmlns="http://www.w3.org/2000/svg" xmlns:xlink="http://www.w3.org/1999/xlink" x="0px" y="0px"
	 viewBox="0 0 64 64" style="enable-background:new 0 0 64 64;" xml:space="preserve">
<style type="text/css">
	.st0{fill:#B7CEEB;}
</style>
<path class="st0" d="M52.3,18.7c-4.4,0-8,3.6-8,8c0,1.1,0.9,2,2,2s2-0.9,2-2c0-2.2,1.8-4,4-4s4,1.8,4,4s-1.8,4-4,4H6.5
	c-1.1,0-2,0.9-2,2c0,1.1,0.9,2,2,2h45.8c4.4,0,8-3.6,8-8S56.7,18.7,52.3,18.7z"/>
<path class="st0" d="M6.3,26.7h26c4.4,0,8-3.6,8-8s-3.6-8-8-8s-8,3.6-8,8c0,1.1,0.9,2,2,2s2-0.9,2-2c0-2.2,1.8-4,4-4s4,1.8,4,4
	s-1.8,4-4,4h-26c-1.1,0-2,0.9-2,2S5.2,26.7,6.3,26.7z"/>
<path class="st0" d="M32.3,38.7h-26c-1.1,0-2,0.9-2,2s0.9,2,2,2h26c2.2,0,4,1.8,4,4s-1.8,4-4,4s-4-1.8-4-4c0-1.1-0.9-2-2-2
	s-2,0.9-2,2c0,4.4,3.6,8,8,8s8-3.6,8-8S36.7,38.7,32.3,38.7z"/>
<path class="st0" d="M52.6,41.7h-7.3c-0.8,0-1.5-0.7-1.5-1.5l0,0c0-0.8,0.7-1.5,1.5-1.5h7.3c0.8,0,1.5,0.7,1.5,1.5l0,0
	C54.1,41,53.4,41.7,52.6,41.7z"/>
<path class="st0" d="M52.6,46h-7.3c-0.8,0-1.5-0.7-1.5-1.5v0c0-0.8,0.7-1.5,1.5-1.5h7.3c0.8,0,1.5,0.7,1.5,1.5v0
	C54.1,45.4,53.4,46,52.6,46z"/>
<path class="st0" d="M49.6,50.4h-4.2c-0.8,0-1.5-0.7-1.5-1.5v0c0-0.8,0.7-1.5,1.5-1.5h4.2c0.8,0,1.5,0.7,1.5,1.5v0
	C51.1,49.8,50.4,50.4,49.6,50.4z"/>
<path class="st0" d="M43.8,53.2v-13c0-0.8,0.7-1.5,1.5-1.5h0c0.8,0,1.5,0.7,1.5,1.5v13c0,0.8-0.7,1.5-1.5,1.5h0
	C44.5,54.7,43.8,54,43.8,53.2z"/>
</svg>
