<?xml version="1.0" encoding="utf-8"?>
<!-- Generator: Adobe Illustrator 19.2.1, SVG Export Plug-In . SVG Version: 6.00 Build 0)  -->
<svg version="1.1" id="XMLID_2_" xmlns="http://www.w3.org/2000/svg" xmlns:xlink="http://www.w3.org/1999/xlink" x="0px" y="0px"
	 viewBox="0 0 64 64" enable-background="new 0 0 64 64" xml:space="preserve">
<g id="flat-icon-81">
	<path fill="#D9E3D4" d="M58.3541,28.6428c-6.5371,0-11.8428-5.2301-11.9863-11.7329c-5.6799,0.9484-10.0137,5.8729-10.0137,11.8221
		c0,6.6274,5.3726,12,12,12s12-5.3726,12-12c0-0.0902-0.0117-0.1774-0.0137-0.2671C59.6929,28.5731,59.0323,28.6428,58.3541,28.6428
		z"/>
	<g>
		<path fill="#BFC9BE" d="M43.5325,23.9107c0.9453,0,1.7144,0.769,1.7144,1.7143s-0.769,1.7143-1.7144,1.7143
			s-1.7141-0.769-1.7141-1.7143S42.5872,23.9107,43.5325,23.9107 M43.5325,22.1964c-1.8909,0-3.4285,1.5375-3.4285,3.4286
			s1.5376,3.4286,3.4285,3.4286c1.8911,0,3.4287-1.5375,3.4287-3.4286S45.4237,22.1964,43.5325,22.1964z"/>
	</g>
	<path fill="#BCC5B8" d="M48.3541,30.6428c-0.0032,0-0.0063,0-0.0098,0c-2.686-3.5754-6.4927-6.1094-10.7573-7.2728
		c-0.7817,1.5933-1.2329,3.3783-1.2329,5.2728c0,6.6274,5.3726,12,12,12c4.48,0,8.3794-2.4595,10.4404-6.0973
		C55.9893,32.1209,52.3443,30.6428,48.3541,30.6428z"/>
	<g>
		<path fill="#FCD95F" d="M22.3541,6.6428c0,4.5962-3.4036,8-8,8c4.5964,0,8,3.4033,8,8c0-4.5967,3.4036-8,8-8
			C25.7576,14.6428,22.3541,11.239,22.3541,6.6428z"/>
		<path fill="#FCD95F" d="M8.3541,21.7368c0,2.2981-1.7018,4-4,4c2.2982,0,4,1.7017,4,4c0-2.2983,1.7018-4,4-4
			C10.0559,25.7368,8.3541,24.0349,8.3541,21.7368z"/>
	</g>
	<path fill="#B3BDB2" d="M43.5325,29.0535c0.9558,0,1.8196-0.3947,2.4419-1.0273c-0.4265-0.3953-0.8699-0.7686-1.3276-1.1238
		c-0.3015,0.2629-0.6838,0.4369-1.1143,0.4369c-0.9453,0-1.7141-0.769-1.7141-1.7142c0-0.1791,0.051-0.3428,0.1021-0.5051
		c-0.5105-0.2773-1.0337-0.5303-1.5669-0.7629c-0.1575,0.3931-0.2495,0.8193-0.2495,1.2681
		C40.1041,27.516,41.6417,29.0535,43.5325,29.0535z"/>
	<g>
		<g>
			<g>
				<g>
					<path fill="#B3BDB2" d="M52.9969,33.2321c0.4727,0,0.8572,0.3845,0.8572,0.8571c0,0.4726-0.3845,0.8571-0.8572,0.8571
						S52.14,34.5619,52.14,34.0893C52.14,33.6167,52.5242,33.2321,52.9969,33.2321 M52.9969,31.5179
						c-1.4182,0-2.5713,1.1531-2.5713,2.5714s1.1531,2.5714,2.5713,2.5714c1.4185,0,2.5715-1.1531,2.5715-2.5714
						S54.4154,31.5179,52.9969,31.5179z"/>
				</g>
			</g>
			<g>
				<circle fill="#B3BDB2" cx="49.4969" cy="28.3036" r="0.4286"/>
				<circle fill="#B3BDB2" cx="56.7826" cy="30.2143" r="0.4286"/>
			</g>
		</g>
	</g>
	<g>
		<path fill="#F3F3F3" d="M48.3541,34.6428c-0.6985,0-1.3789,0.0723-2.0444,0.1868c-2.7397-4.8824-7.9585-8.1868-13.9556-8.1868
			s-11.2158,3.3043-13.9556,8.1868c-0.6655-0.1145-1.3459-0.1868-2.0444-0.1868c-6.6274,0-12,5.3726-12,12s5.3726,12,12,12h32
			c6.6274,0,12-5.3726,12-12S54.9815,34.6428,48.3541,34.6428z"/>
	</g>
	<g>
		<path fill="#E1E1E1" d="M48.3541,34.6428c-0.6982,0-1.3789,0.0723-2.0444,0.1868c-0.0122-0.0221-0.0288-0.0415-0.0415-0.0636
			c1.3213,2.3275,2.0859,5.0125,2.0859,7.8801c0,8.8347-7.1621,15.9967-15.9966,15.9967h15.9966c6.6274,0,12-5.3726,12-12
			S54.9815,34.6428,48.3541,34.6428z"/>
	</g>
</g>
</svg>
