<?xml version="1.0" encoding="utf-8"?>
<!-- Generator: Adobe Illustrator 19.2.1, SVG Export Plug-In . SVG Version: 6.00 Build 0)  -->
<svg version="1.1" id="XMLID_2_" xmlns="http://www.w3.org/2000/svg" xmlns:xlink="http://www.w3.org/1999/xlink" x="0px" y="0px"
	 viewBox="0 0 64 64" enable-background="new 0 0 64 64" xml:space="preserve">
<g id="flat-icon-75">
	<circle fill="#FAFDFF" cx="31.7663" cy="33.1323" r="28"/>
	<circle fill="#EAF6FD" cx="31.7663" cy="33.1323" r="24.0004"/>
	<path fill="#FCD95F" d="M53.7663,3.1723c0,4.5962-3.4036,8-8,8c4.5964,0,8,3.4033,8,8c0-4.5967,3.4036-8,8-8
		C57.1699,11.1723,53.7663,7.7685,53.7663,3.1723z"/>
	<path fill="#FCD95F" d="M7.7663,5.1723c0,2.2981-1.7018,4-4,4c2.2982,0,4,1.7017,4,4c0-2.2983,1.7018-4,4-4
		C9.4681,9.1723,7.7663,7.4704,7.7663,5.1723z"/>
	<circle fill="#D9E3D4" cx="31.7663" cy="33.1323" r="20"/>
	<g>
		<g>
			<path fill="#EDF1EA" d="M44.2459,18.9903c7.8104,7.8104,7.8107,20.4736,0,28.2843c-3.6931,3.6931-8.4725,5.6179-13.3095,5.8182
				c5.3917,0.2226,10.8556-1.7018,14.9721-5.8184c7.8104-7.8104,7.8106-20.4737,0-28.2843
				c-4.1168-4.1168-9.5814-6.0409-14.9734-5.8179C35.7728,13.3726,40.5523,15.2967,44.2459,18.9903z"/>
			<g>
				<path fill="#BCC5B8" d="M23.7008,24.2395c2.0483,0,3.7144,1.6662,3.7144,3.7143c0,2.048-1.666,3.7143-3.7144,3.7143
					s-3.7144-1.6662-3.7144-3.7143C19.9864,25.9057,21.6524,24.2395,23.7008,24.2395 M23.7008,22.2395
					c-3.1519,0-5.7144,2.5625-5.7144,5.7143c0,3.1518,2.5625,5.7143,5.7144,5.7143s5.7144-2.5625,5.7144-5.7143
					C29.4151,24.802,26.8526,22.2395,23.7008,22.2395z"/>
			</g>
			<g>
				<path fill="#BCC5B8" d="M39.5046,39.7752c1.2603,0,2.2856,1.0254,2.2856,2.2857s-1.0254,2.2857-2.2856,2.2857
					c-1.2607,0-2.2861-1.0254-2.2861-2.2857S38.2439,39.7752,39.5046,39.7752 M39.5046,37.7752
					c-2.3643,0-4.2861,1.9219-4.2861,4.2857c0,2.3639,1.9219,4.2857,4.2861,4.2857c2.3638,0,4.2856-1.9219,4.2856-4.2857
					C43.7903,39.697,41.8684,37.7752,39.5046,37.7752z"/>
			</g>
		</g>
		<g>
			<circle fill="#BCC5B8" cx="25.6949" cy="42.0609" r="1.4286"/>
			<circle fill="#BCC5B8" cx="32.2425" cy="19.7395" r="0.7143"/>
			<circle fill="#BCC5B8" cx="33.6711" cy="32.418" r="0.7143"/>
			<circle fill="#BCC5B8" cx="18.0163" cy="37.8301" r="0.7143"/>
			<circle fill="#BCC5B8" cx="45.0997" cy="34.1051" r="0.7143"/>
			<circle fill="#BCC5B8" cx="29.4449" cy="48.2717" r="0.7143"/>
			<circle fill="#BCC5B8" cx="40.3378" cy="24.5609" r="2.5"/>
			<path fill="#EDF1EA" d="M38.6438,24.5609c0-1.2377,0.916-2.2189,2.0972-2.4186c-0.1367-0.0231-0.2603-0.0814-0.4033-0.0814
				c-1.3804,0-2.5,1.1194-2.5,2.5s1.1196,2.5,2.5,2.5c0.1431,0,0.2666-0.0583,0.4033-0.0814
				C39.5598,26.7798,38.6438,25.7986,38.6438,24.5609z"/>
		</g>
	</g>
</g>
</svg>
